<svg xmlns="http://www.w3.org/2000/svg" xmlns:xlink="http://www.w3.org/1999/xlink" width="500" zoomAndPan="magnify" viewBox="0 0 375 374.999991" height="500" preserveAspectRatio="xMidYMid meet" version="1.0"><defs><g/><clipPath id="ea8cff359a"><path d="M 123.597656 105.605469 L 247 105.605469 L 247 221.855469 L 123.597656 221.855469 Z M 123.597656 105.605469 " clip-rule="nonzero"/></clipPath><clipPath id="87fbf36342"><path d="M 278 126 L 309.597656 126 L 309.597656 151 L 278 151 Z M 278 126 " clip-rule="nonzero"/></clipPath><clipPath id="675da0fcbb"><rect x="0" width="261" y="0" height="155"/></clipPath></defs><rect x="-37.5" width="450" fill="#ffffff" y="-37.499999" height="449.999989" fill-opacity="1"/><rect x="-37.5" width="450" fill="#ffffff" y="-37.499999" height="449.999989" fill-opacity="1"/><path fill="#ff8731" d="M 183.367188 204.144531 C 183.367188 204.144531 190.394531 134.289062 286.046875 136.621094 C 286.046875 136.621094 208.1875 136.71875 188.539062 209.542969 Z M 183.367188 204.144531 " fill-opacity="1" fill-rule="nonzero"/><g clip-path="url(#ea8cff359a)"><path fill="#15b0f8" d="M 226.40625 144.574219 C 232.675781 141.625 239.488281 139.269531 246.816406 137.523438 C 243.984375 126.511719 234.453125 121.773438 222.625 121.773438 L 209.851562 121.773438 L 209.851562 112.601562 C 209.851562 108.738281 206.71875 105.605469 202.855469 105.605469 L 173.804688 105.605469 C 169.9375 105.605469 166.808594 108.738281 166.808594 112.601562 L 166.808594 121.773438 L 149.5625 121.773438 C 135.390625 121.773438 123.910156 129.609375 123.910156 145.84375 L 123.910156 221.824219 C 128.300781 218.507812 133.699219 216.453125 139.566406 216.199219 C 140.183594 214.566406 140.945312 213.003906 141.839844 211.535156 C 141.835938 211.539062 141.835938 211.542969 141.835938 211.542969 C 141.835938 211.542969 137.367188 195.386719 133.777344 188.023438 C 131.769531 190.257812 132.484375 196.757812 132.484375 196.757812 C 128.332031 191.304688 130.246094 188.570312 132.15625 187.308594 C 129.234375 188.144531 125.640625 193.253906 125.640625 193.253906 C 125.519531 182.570312 133.085938 185.25 133.085938 185.25 C 132.554688 183.46875 132.070312 179.246094 139.503906 179.015625 C 139.503906 179.015625 135.125 182.582031 134.796875 185.222656 C 135.753906 183.292969 138.796875 178.800781 143.953125 185.976562 C 143.675781 185.976562 137.980469 184.441406 135.324219 186.171875 C 135.324219 186.171875 135.324219 186.179688 135.324219 186.179688 C 135.726562 186.023438 139.929688 184.558594 139.710938 191.839844 C 139.710938 191.839844 137.058594 187.910156 134.941406 187.445312 C 134.9375 187.453125 134.925781 187.460938 134.917969 187.464844 C 135.664062 188.960938 138.957031 193.976562 141.300781 199.632812 C 143.777344 189.472656 149.808594 178.582031 151.417969 175.382812 C 151.402344 175.367188 151.390625 175.355469 151.375 175.339844 C 147.644531 176.160156 142.957031 183.097656 142.957031 183.097656 C 142.570312 170.234375 149.992188 172.824219 150.707031 173.101562 C 150.707031 173.097656 150.707031 173.089844 150.707031 173.089844 C 146.011719 170.03125 135.957031 172.734375 135.46875 172.734375 C 144.574219 160.070312 149.945312 167.996094 151.636719 171.40625 C 151.050781 166.742188 143.324219 160.449219 143.324219 160.449219 C 156.445312 160.855469 155.597656 168.316406 154.65625 171.453125 C 154.660156 171.453125 168.015625 166.726562 167.800781 185.582031 C 167.800781 185.582031 161.457031 176.5625 156.296875 175.082031 C 159.660156 177.304688 163.042969 182.132812 155.710938 191.761719 C 155.710938 191.761719 156.980469 180.296875 153.433594 176.347656 C 147.09375 189.335938 146.210938 206.011719 146.210938 206.011719 L 146.207031 206.015625 C 151.265625 201.058594 158.199219 198 165.851562 198 C 171.339844 198 176.460938 199.574219 180.785156 202.300781 C 181.085938 200.441406 181.765625 197.042969 183.179688 192.703125 C 185.128906 186.710938 188.929688 177.667969 195.949219 168.621094 C 203.839844 158.464844 214.082031 150.371094 226.40625 144.574219 Z M 171.957031 113.75 C 171.957031 111.746094 173.578125 110.125 175.582031 110.125 L 201.078125 110.125 C 203.082031 110.125 204.699219 111.746094 204.699219 113.75 L 204.699219 121.773438 L 171.957031 121.773438 Z M 171.957031 113.75 " fill-opacity="1" fill-rule="nonzero"/></g><path fill="#ff8731" d="M 247.699219 147.574219 C 246.988281 147.851562 246.277344 148.144531 245.558594 148.441406 C 217.417969 160.21875 199.144531 181.023438 191.253906 210.273438 L 191 211.210938 C 192.539062 211.738281 194.019531 212.398438 195.425781 213.175781 C 200.398438 208.710938 206.96875 205.996094 214.179688 205.996094 C 223.179688 205.996094 231.191406 210.230469 236.332031 216.816406 C 239.414062 212.863281 243.53125 209.761719 248.277344 207.910156 Z M 247.699219 147.574219 " fill-opacity="1" fill-rule="nonzero"/><g clip-path="url(#87fbf36342)"><path fill="#ff8731" d="M 309.257812 137.238281 L 278.175781 126.277344 L 285.269531 135.0625 L 297.132812 137.550781 L 285.015625 137.101562 L 279.550781 143.757812 L 285.488281 142.597656 L 286.128906 150.042969 Z M 309.257812 137.238281 " fill-opacity="1" fill-rule="nonzero"/></g><g transform="matrix(1, 0, 0, 1, 56, 129)"><g clip-path="url(#675da0fcbb)"><g fill="#fffef9" fill-opacity="1"><g transform="translate(5.295121, 88.616657)"><g><path d="M 40.855469 41.808594 C 40.980469 41.808594 41.132812 41.753906 41.320312 41.640625 C 41.695312 41.414062 42.105469 41.023438 42.550781 40.464844 C 43.773438 38.921875 44.949219 36.914062 46.074219 34.4375 C 47.261719 31.835938 48.300781 29.101562 49.199219 26.230469 C 50.113281 23.316406 50.847656 20.632812 51.402344 18.171875 C 51.933594 15.824219 52.226562 14.082031 52.277344 12.949219 L 55.6875 13.101562 L 57.820312 15.765625 C 57.457031 16.054688 57.144531 16.390625 56.871094 16.769531 C 56.273438 17.609375 55.578125 18.382812 54.785156 19.097656 L 52.503906 16.558594 L 54.914062 18.972656 C 53.441406 20.449219 51.867188 22.265625 50.195312 24.425781 C 48.515625 26.597656 46.980469 28.828125 45.589844 31.117188 C 44.269531 33.292969 43.3125 35.261719 42.726562 37.019531 L 39.492188 35.941406 L 42.757812 36.921875 C 42.597656 37.464844 42.402344 38.214844 42.175781 39.179688 C 41.976562 40.019531 41.855469 40.859375 41.804688 41.691406 C 41.78125 42.117188 41.8125 42.421875 41.90625 42.605469 C 41.769531 42.332031 41.554688 42.113281 41.261719 41.953125 C 41.085938 41.859375 40.949219 41.808594 40.855469 41.808594 Z M 40.855469 48.636719 C 39.789062 48.636719 38.835938 48.40625 37.992188 47.945312 C 37.03125 47.421875 36.300781 46.660156 35.800781 45.65625 C 35.164062 44.386719 34.894531 42.929688 34.992188 41.292969 C 35.0625 40.0625 35.246094 38.839844 35.53125 37.617188 C 35.789062 36.519531 36.019531 35.632812 36.222656 34.960938 L 36.238281 34.910156 L 36.253906 34.863281 C 37 32.617188 38.171875 30.1875 39.757812 27.574219 C 41.28125 25.066406 42.960938 22.625 44.796875 20.25 C 46.644531 17.863281 48.410156 15.828125 50.089844 14.148438 L 50.152344 14.085938 L 50.21875 14.023438 C 50.640625 13.644531 51.007812 13.238281 51.316406 12.804688 C 51.957031 11.910156 52.703125 11.121094 53.554688 10.4375 L 59.4375 5.730469 L 59.09375 13.257812 C 59.027344 14.792969 58.679688 16.933594 58.058594 19.679688 C 57.464844 22.316406 56.679688 25.179688 55.714844 28.273438 C 54.730469 31.410156 53.589844 34.40625 52.285156 37.265625 C 50.925781 40.246094 49.464844 42.726562 47.894531 44.703125 C 45.816406 47.324219 43.472656 48.636719 40.855469 48.636719 Z M -3.414062 -7.824219 C -3.414062 -11.890625 -3.0625 -16.089844 -2.367188 -20.421875 C -1.679688 -24.71875 -0.722656 -28.953125 0.5 -33.125 C 1.730469 -37.316406 3.167969 -41.214844 4.8125 -44.820312 L 4.828125 -44.855469 L 4.847656 -44.894531 C 5.925781 -47.113281 7.21875 -49.464844 8.730469 -51.953125 C 10.292969 -54.523438 12.082031 -56.949219 14.097656 -59.222656 C 16.210938 -61.613281 18.546875 -63.5625 21.09375 -65.082031 C 23.875 -66.734375 26.914062 -67.5625 30.210938 -67.5625 C 33.277344 -67.5625 36.144531 -66.652344 38.816406 -64.832031 C 41.398438 -63.070312 43.582031 -60.410156 45.363281 -56.847656 C 47.316406 -52.945312 48.507812 -48.53125 48.941406 -43.609375 C 49.355469 -38.902344 49.308594 -34.160156 48.796875 -29.390625 C 48.296875 -24.6875 47.539062 -20.3125 46.53125 -16.277344 C 46.078125 -14.398438 45.703125 -13.070312 45.410156 -12.296875 C 45.070312 -11.40625 44.5625 -10.6875 43.886719 -10.140625 C 43.0625 -9.476562 42.113281 -9.144531 41.039062 -9.144531 C 40.484375 -9.144531 39.898438 -9.25 39.277344 -9.457031 C 39.171875 -9.492188 39.027344 -9.523438 38.839844 -9.554688 L 36.492188 -9.945312 L 36.046875 -12.28125 C 35.730469 -13.941406 35.664062 -15.359375 35.84375 -16.535156 C 35.964844 -17.304688 36.113281 -18.34375 36.292969 -19.660156 L 36.308594 -19.789062 L 36.335938 -19.914062 C 36.867188 -22.386719 37.261719 -24.535156 37.523438 -26.371094 C 37.777344 -28.15625 37.933594 -29.957031 37.992188 -31.773438 C 38.050781 -33.675781 38.078125 -35.917969 38.078125 -38.488281 C 38.078125 -40.226562 37.886719 -42.179688 37.496094 -44.347656 C 37.117188 -46.46875 36.519531 -48.507812 35.703125 -50.460938 C 34.960938 -52.242188 34.046875 -53.6875 32.957031 -54.800781 C 32.230469 -55.542969 31.34375 -55.914062 30.300781 -55.914062 C 28.804688 -55.914062 27.371094 -55.410156 26.003906 -54.398438 C 24.300781 -53.140625 22.683594 -51.492188 21.15625 -49.453125 C 19.539062 -47.300781 18.09375 -44.988281 16.816406 -42.519531 C 15.503906 -39.980469 14.382812 -37.539062 13.457031 -35.1875 C 12.527344 -32.835938 11.832031 -30.863281 11.378906 -29.273438 C 10.671875 -26.917969 9.996094 -24.128906 9.351562 -20.894531 C 8.710938 -17.695312 8.261719 -14.359375 7.996094 -10.890625 C 7.738281 -7.476562 7.769531 -4.1875 8.082031 -1.019531 C 8.375 1.941406 9.070312 4.542969 10.164062 6.78125 C 10.535156 7.523438 10.984375 8.324219 11.507812 9.179688 C 11.863281 9.761719 12.269531 10.230469 12.726562 10.582031 L 12.816406 10.648438 L 12.902344 10.726562 C 13.589844 11.328125 14.300781 11.757812 15.046875 12.003906 C 15.878906 12.28125 16.71875 12.421875 17.5625 12.421875 C 19.328125 12.421875 21.128906 12.015625 22.964844 11.207031 C 25.015625 10.304688 26.945312 9.199219 28.75 7.886719 C 30.605469 6.535156 32.136719 5.257812 33.347656 4.046875 L 35.757812 6.460938 L 33.242188 4.15625 L 38.15625 -1.210938 L 40.671875 1.09375 L 37.992188 -1.019531 C 40.132812 -3.738281 41.863281 -6.242188 43.175781 -8.523438 L 48 -16.898438 C 48.464844 -17.710938 49.050781 -18.785156 49.765625 -20.121094 C 50.527344 -21.554688 51.355469 -22.984375 52.242188 -24.414062 C 53.199219 -25.953125 54.171875 -27.265625 55.15625 -28.355469 C 56.683594 -30.046875 58.316406 -30.890625 60.054688 -30.890625 C 61.1875 -30.890625 62.207031 -30.582031 63.109375 -29.957031 C 63.921875 -29.394531 64.566406 -28.625 65.039062 -27.644531 C 65.628906 -26.421875 66.023438 -24.984375 66.21875 -23.332031 C 66.386719 -21.925781 66.46875 -20.515625 66.46875 -19.109375 L 66.46875 -16.015625 C 66.46875 -11.773438 66.183594 -7.832031 65.609375 -4.199219 C 65.085938 -0.878906 64.792969 1.617188 64.738281 3.296875 L 61.328125 3.183594 L 59.574219 0.257812 C 59.308594 0.417969 59.074219 0.703125 58.867188 1.113281 C 59.265625 0.316406 59.976562 -0.375 61 -0.960938 L 62.691406 2 L 60.28125 -0.410156 C 60.84375 -0.976562 61.382812 -1.386719 61.894531 -1.640625 C 61.855469 -1.621094 61.824219 -1.605469 61.796875 -1.589844 L 61.804688 -1.59375 C 61.859375 -1.632812 61.929688 -1.683594 62.015625 -1.753906 L 64.148438 0.910156 L 61.761719 -1.527344 L 74.410156 -13.902344 L 76.796875 -11.464844 L 74.066406 -13.511719 C 74.480469 -14.0625 75.015625 -14.71875 75.679688 -15.476562 C 76.390625 -16.296875 77.144531 -17.050781 77.933594 -17.734375 C 79.242188 -18.863281 80.621094 -19.425781 82.074219 -19.425781 C 83.410156 -19.425781 84.492188 -19.050781 85.320312 -18.296875 C 86.007812 -17.664062 86.421875 -16.886719 86.554688 -15.960938 C 86.644531 -15.308594 86.582031 -14.648438 86.359375 -13.980469 C 86.019531 -12.964844 85.375 -11.859375 84.429688 -10.664062 C 83.652344 -9.683594 82.835938 -8.765625 81.984375 -7.914062 C 81.339844 -7.269531 80.976562 -6.890625 80.890625 -6.777344 L 80.746094 -6.585938 L 80.574219 -6.414062 C 80.0625 -5.902344 79.621094 -5.410156 79.246094 -4.9375 C 78.675781 -4.214844 77.988281 -3.484375 77.179688 -2.753906 L 63.550781 10.152344 L 63.519531 10.179688 C 63.550781 10.152344 63.574219 10.125 63.585938 10.097656 C 63.5625 10.144531 63.546875 10.222656 63.53125 10.339844 C 63.386719 11.507812 63.160156 12.582031 62.859375 13.558594 L 59.597656 12.558594 L 62.957031 13.160156 C 62.523438 15.589844 61.917969 18.414062 61.144531 21.632812 C 60.359375 24.886719 59.40625 28.183594 58.285156 31.523438 C 57.128906 34.953125 55.765625 38.132812 54.1875 41.0625 C 52.496094 44.203125 50.515625 46.734375 48.242188 48.648438 C 47.675781 49.132812 46.867188 49.6875 45.8125 50.304688 C 44.398438 51.132812 43.050781 51.546875 41.765625 51.546875 C 38.699219 51.546875 36.410156 50.789062 34.894531 49.273438 C 33.460938 47.84375 32.648438 46.046875 32.453125 43.894531 C 32.320312 42.457031 32.257812 40.988281 32.257812 39.492188 C 32.257812 37.027344 32.800781 34.507812 33.890625 31.929688 C 34.886719 29.566406 36.164062 27.246094 37.714844 24.96875 C 39.179688 22.816406 40.664062 20.773438 42.160156 18.839844 L 46.046875 13.839844 L 46.113281 13.765625 C 46.617188 13.191406 47.109375 12.679688 47.59375 12.234375 C 47.71875 12.117188 47.847656 11.945312 47.972656 11.71875 L 48.105469 11.476562 L 48.28125 11.257812 C 49.636719 9.546875 50.808594 8.339844 51.804688 7.632812 L 53.527344 6.410156 C 53.417969 6.488281 53.335938 6.5625 53.285156 6.636719 C 53.304688 6.605469 53.335938 6.542969 53.375 6.445312 C 53.558594 5.96875 53.785156 4.9375 54.050781 3.351562 L 57.414062 3.914062 L 54.03125 3.472656 L 54.804688 -2.488281 C 55.132812 -4.972656 55.433594 -7.578125 55.703125 -10.300781 C 55.96875 -12.976562 56.128906 -15.484375 56.1875 -17.828125 C 56.242188 -19.960938 56.152344 -21.515625 55.917969 -22.503906 L 59.234375 -23.292969 L 62.15625 -21.527344 L 58.222656 -15.035156 L 58.203125 -15 C 56.957031 -13.046875 55.921875 -11.347656 55.101562 -9.910156 C 54.242188 -8.40625 53.417969 -6.984375 52.621094 -5.632812 C 51.796875 -4.242188 50.867188 -2.773438 49.828125 -1.234375 C 48.792969 0.304688 47.496094 2.101562 45.941406 4.152344 L 43.222656 2.09375 L 46.011719 4.054688 C 44.746094 5.855469 43.089844 7.777344 41.039062 9.828125 C 39.015625 11.851562 36.773438 13.792969 34.308594 15.644531 C 31.789062 17.542969 29.242188 19.105469 26.667969 20.324219 C 23.839844 21.667969 21.136719 22.339844 18.5625 22.339844 C 16.257812 22.339844 14.167969 22.1875 12.289062 21.886719 C 9.839844 21.492188 7.5625 20.203125 5.457031 18.015625 C 2.101562 14.589844 -0.234375 10.632812 -1.546875 6.144531 C -2.789062 1.886719 -3.414062 -2.769531 -3.414062 -7.824219 Z M 3.414062 -7.824219 C 3.414062 -3.417969 3.941406 0.597656 5.003906 4.230469 C 5.996094 7.625 7.785156 10.644531 10.375 13.285156 C 11.425781 14.375 12.421875 14.996094 13.371094 15.148438 C 14.890625 15.390625 16.621094 15.515625 18.5625 15.515625 C 20.113281 15.515625 21.839844 15.0625 23.742188 14.160156 C 25.898438 13.136719 28.054688 11.816406 30.203125 10.195312 C 32.410156 8.53125 34.414062 6.800781 36.214844 5.003906 C 37.984375 3.230469 39.390625 1.605469 40.429688 0.128906 L 40.464844 0.078125 L 40.5 0.03125 C 41.980469 -1.917969 43.203125 -3.613281 44.167969 -5.046875 C 45.128906 -6.476562 45.988281 -7.828125 46.742188 -9.105469 C 47.523438 -10.425781 48.335938 -11.824219 49.175781 -13.292969 C 50.050781 -14.828125 51.140625 -16.617188 52.445312 -18.664062 L 55.324219 -16.832031 L 52.402344 -18.601562 L 60.628906 -32.179688 L 62.554688 -24.085938 C 62.925781 -22.523438 63.078125 -20.378906 63.011719 -17.65625 C 62.949219 -15.148438 62.777344 -12.472656 62.496094 -9.628906 C 62.21875 -6.832031 61.910156 -4.15625 61.574219 -1.609375 L 60.792969 4.414062 L 60.78125 4.472656 C 60.4375 6.527344 60.089844 8.015625 59.730469 8.933594 C 59.210938 10.257812 58.460938 11.273438 57.480469 11.972656 L 55.75 13.203125 C 55.285156 13.53125 54.582031 14.292969 53.628906 15.492188 L 50.957031 13.375 L 53.9375 15.03125 C 53.457031 15.898438 52.886719 16.636719 52.222656 17.246094 C 51.917969 17.53125 51.59375 17.867188 51.25 18.261719 L 48.679688 16.015625 L 51.375 18.109375 L 47.558594 23.015625 C 46.144531 24.84375 44.742188 26.773438 43.355469 28.808594 C 42.058594 30.714844 41 32.640625 40.175781 34.585938 C 39.445312 36.316406 39.082031 37.949219 39.082031 39.492188 C 39.082031 40.78125 39.136719 42.042969 39.25 43.277344 C 39.296875 43.789062 39.453125 44.179688 39.71875 44.449219 C 39.703125 44.433594 39.691406 44.421875 39.679688 44.414062 C 39.679688 44.414062 39.6875 44.417969 39.695312 44.421875 C 39.765625 44.460938 39.867188 44.5 39.996094 44.535156 C 40.433594 44.660156 41.023438 44.722656 41.765625 44.722656 L 41.765625 44.703125 C 41.925781 44.648438 42.125 44.554688 42.359375 44.417969 C 43.0625 44.003906 43.558594 43.675781 43.839844 43.433594 C 45.453125 42.074219 46.898438 40.207031 48.179688 37.828125 C 49.574219 35.238281 50.785156 32.410156 51.816406 29.347656 C 52.875 26.199219 53.773438 23.097656 54.507812 20.039062 C 55.25 16.949219 55.828125 14.253906 56.242188 11.953125 L 56.277344 11.75 L 56.339844 11.554688 C 56.523438 10.953125 56.664062 10.269531 56.757812 9.496094 C 56.984375 7.683594 57.71875 6.21875 58.953125 5.105469 L 61.238281 7.644531 L 58.890625 5.164062 L 72.589844 -7.800781 C 73.117188 -8.28125 73.550781 -8.738281 73.890625 -9.167969 C 74.429688 -9.847656 75.046875 -10.539062 75.75 -11.238281 L 78.160156 -8.828125 L 75.433594 -10.875 C 75.710938 -11.246094 76.285156 -11.867188 77.160156 -12.742188 C 77.824219 -13.40625 78.464844 -14.128906 79.082031 -14.90625 C 79.53125 -15.46875 79.796875 -15.882812 79.882812 -16.136719 C 79.765625 -15.789062 79.738281 -15.40625 79.796875 -14.996094 C 79.894531 -14.304688 80.203125 -13.726562 80.71875 -13.253906 C 81.050781 -12.949219 81.417969 -12.746094 81.816406 -12.648438 C 81.933594 -12.617188 82.019531 -12.601562 82.074219 -12.601562 C 82.261719 -12.601562 82.417969 -12.632812 82.546875 -12.6875 C 82.53125 -12.679688 82.476562 -12.640625 82.394531 -12.566406 C 81.851562 -12.097656 81.328125 -11.574219 80.828125 -11 C 80.273438 -10.363281 79.839844 -9.835938 79.527344 -9.417969 L 79.371094 -9.207031 L 66.414062 3.46875 L 66.28125 3.574219 C 65.789062 3.96875 65.34375 4.261719 64.945312 4.460938 C 65.078125 4.394531 65.183594 4.332031 65.253906 4.273438 C 65.222656 4.300781 65.175781 4.347656 65.105469 4.414062 L 64.78125 4.738281 L 64.386719 4.964844 C 64.347656 4.984375 64.320312 5.003906 64.300781 5.015625 C 64.308594 5.011719 64.328125 4.996094 64.351562 4.976562 C 64.59375 4.777344 64.800781 4.503906 64.972656 4.164062 C 64.585938 4.9375 63.957031 5.589844 63.082031 6.109375 L 57.710938 9.335938 L 57.917969 3.070312 C 57.984375 1.109375 58.300781 -1.667969 58.867188 -5.265625 C 59.386719 -8.546875 59.644531 -12.128906 59.644531 -16.015625 L 59.644531 -19.109375 C 59.644531 -20.246094 59.578125 -21.386719 59.441406 -22.527344 C 59.335938 -23.421875 59.152344 -24.140625 58.890625 -24.675781 C 58.941406 -24.574219 59.054688 -24.464844 59.230469 -24.339844 C 59.496094 -24.160156 59.769531 -24.066406 60.054688 -24.066406 C 60.316406 -24.066406 60.519531 -24.109375 60.664062 -24.195312 C 60.5625 -24.136719 60.417969 -24 60.222656 -23.78125 C 59.507812 -22.992188 58.78125 -22 58.039062 -20.808594 C 57.230469 -19.507812 56.476562 -18.207031 55.785156 -16.910156 C 55.042969 -15.515625 54.417969 -14.378906 53.910156 -13.492188 L 49.089844 -5.125 C 47.613281 -2.554688 45.699219 0.222656 43.355469 3.203125 L 43.277344 3.300781 L 38.226562 8.820312 L 38.171875 8.875 C 36.710938 10.335938 34.910156 11.84375 32.761719 13.40625 C 30.5625 15.003906 28.214844 16.355469 25.714844 17.453125 C 23 18.648438 20.285156 19.246094 17.5625 19.246094 C 15.980469 19.246094 14.421875 18.988281 12.886719 18.476562 C 11.265625 17.9375 9.765625 17.058594 8.386719 15.84375 L 10.644531 13.285156 L 8.566406 15.988281 C 7.445312 15.125 6.484375 14.046875 5.6875 12.746094 C 5.0625 11.722656 4.507812 10.734375 4.03125 9.777344 C 2.578125 6.800781 1.664062 3.425781 1.289062 -0.347656 C 0.9375 -3.910156 0.90625 -7.597656 1.191406 -11.402344 C 1.476562 -15.152344 1.964844 -18.761719 2.660156 -22.234375 C 3.347656 -25.675781 4.066406 -28.644531 4.816406 -31.148438 C 5.332031 -32.953125 6.097656 -35.136719 7.109375 -37.695312 C 8.121094 -40.257812 9.335938 -42.914062 10.753906 -45.652344 C 12.207031 -48.460938 13.851562 -51.09375 15.695312 -53.546875 C 17.625 -56.121094 19.710938 -58.234375 21.949219 -59.886719 C 24.523438 -61.789062 27.308594 -62.738281 30.300781 -62.738281 C 33.257812 -62.738281 35.769531 -61.683594 37.835938 -59.574219 C 39.535156 -57.835938 40.925781 -55.675781 42.003906 -53.085938 C 43.007812 -50.675781 43.746094 -48.164062 44.214844 -45.550781 C 44.675781 -42.988281 44.90625 -40.632812 44.90625 -38.488281 C 44.90625 -35.84375 44.875 -33.535156 44.8125 -31.558594 C 44.746094 -29.492188 44.570312 -27.441406 44.277344 -25.40625 C 43.996094 -23.414062 43.570312 -21.109375 43.007812 -18.484375 L 39.671875 -19.199219 L 43.054688 -18.738281 C 42.867188 -17.382812 42.714844 -16.304688 42.589844 -15.496094 C 42.527344 -15.09375 42.582031 -14.449219 42.75 -13.558594 L 39.398438 -12.921875 L 39.960938 -16.285156 C 40.5 -16.195312 40.992188 -16.078125 41.433594 -15.929688 C 41.355469 -15.957031 41.222656 -15.96875 41.039062 -15.96875 C 40.507812 -15.96875 40.027344 -15.796875 39.597656 -15.449219 C 39.316406 -15.222656 39.128906 -14.984375 39.03125 -14.726562 C 39.222656 -15.230469 39.515625 -16.296875 39.910156 -17.933594 C 40.84375 -21.664062 41.542969 -25.722656 42.011719 -30.117188 C 42.472656 -34.445312 42.515625 -38.746094 42.140625 -43.011719 C 41.785156 -47.070312 40.824219 -50.664062 39.257812 -53.796875 C 38.007812 -56.300781 36.578125 -58.097656 34.976562 -59.191406 C 33.460938 -60.222656 31.875 -60.738281 30.210938 -60.738281 C 28.164062 -60.738281 26.289062 -60.230469 24.582031 -59.214844 C 22.644531 -58.0625 20.851562 -56.554688 19.207031 -54.699219 C 17.460938 -52.726562 15.914062 -50.632812 14.5625 -48.410156 C 13.164062 -46.105469 11.96875 -43.9375 10.984375 -41.914062 L 7.917969 -43.402344 L 11.019531 -41.988281 C 9.511719 -38.675781 8.1875 -35.082031 7.050781 -31.207031 C 5.90625 -27.308594 5.015625 -23.355469 4.371094 -19.339844 C 3.730469 -15.363281 3.414062 -11.527344 3.414062 -7.824219 Z M 3.414062 -7.824219 "/></g></g></g><g fill="#fffef9" fill-opacity="1"><g transform="translate(84.08731, 88.616657)"><g><path d="M 3.671875 -5.390625 C 3.582031 -5.367188 3.511719 -5.335938 3.449219 -5.300781 L 3.457031 -5.3125 C 3.617188 -5.46875 3.796875 -5.734375 3.996094 -6.109375 C 4.550781 -7.152344 4.949219 -8.371094 5.191406 -9.769531 C 5.441406 -11.222656 5.507812 -12.535156 5.386719 -13.710938 C 5.347656 -14.074219 5.292969 -14.339844 5.21875 -14.503906 C 5.242188 -14.449219 5.3125 -14.378906 5.429688 -14.300781 L 7.371094 -17.105469 L 10.664062 -16.207031 C 10.449219 -15.425781 10.078125 -14.355469 9.546875 -13 C 9.09375 -11.835938 8.652344 -10.550781 8.222656 -9.148438 C 7.832031 -7.867188 7.570312 -6.625 7.441406 -5.417969 C 7.359375 -4.625 7.421875 -4 7.636719 -3.546875 L 4.550781 -2.09375 Z M 5.429688 1.203125 L 2.675781 1.9375 L 1.460938 -0.640625 C 0.707031 -2.246094 0.4375 -4.082031 0.65625 -6.140625 C 0.832031 -7.78125 1.175781 -9.449219 1.695312 -11.144531 C 2.175781 -12.710938 2.675781 -14.15625 3.191406 -15.480469 C 3.632812 -16.613281 3.929688 -17.453125 4.078125 -18.003906 L 5.347656 -22.65625 L 9.3125 -19.910156 C 10.964844 -18.769531 11.917969 -16.933594 12.175781 -14.40625 C 12.359375 -12.609375 12.273438 -10.675781 11.914062 -8.609375 C 11.550781 -6.492188 10.917969 -4.585938 10.015625 -2.898438 C 8.824219 -0.660156 7.292969 0.707031 5.429688 1.203125 Z M -3.414062 -5.1875 C -3.414062 -6.21875 -3.21875 -7.625 -2.835938 -9.410156 C -2.472656 -11.082031 -1.96875 -12.875 -1.320312 -14.789062 C -0.671875 -16.703125 0.0585938 -18.519531 0.871094 -20.246094 C 1.761719 -22.128906 2.742188 -23.699219 3.820312 -24.960938 C 5.378906 -26.792969 7.140625 -27.707031 9.097656 -27.707031 C 10.070312 -27.707031 10.945312 -27.457031 11.71875 -26.960938 C 12.503906 -26.457031 13.09375 -25.757812 13.492188 -24.863281 C 14.09375 -23.507812 14.191406 -22.234375 13.792969 -21.03125 L 13.761719 -20.9375 L 13.722656 -20.84375 C 13.40625 -20.054688 12.890625 -19.332031 12.167969 -18.675781 C 12.042969 -18.5625 11.933594 -18.4375 11.847656 -18.308594 L 9.007812 -20.199219 L 12.289062 -21.136719 C 12.257812 -21.25 12.226562 -21.332031 12.195312 -21.378906 C 12.234375 -21.320312 12.300781 -21.234375 12.402344 -21.128906 C 13.074219 -20.417969 13.71875 -19.519531 14.335938 -18.433594 C 15.058594 -17.171875 15.523438 -15.570312 15.722656 -13.636719 C 15.910156 -11.832031 15.726562 -9.578125 15.171875 -6.867188 C 14.371094 -3.085938 13.03125 -0.175781 11.152344 1.859375 C 9.019531 4.167969 6.757812 5.324219 4.367188 5.324219 C 2.070312 5.324219 0.144531 4.273438 -1.417969 2.171875 C -2.746094 0.386719 -3.414062 -2.066406 -3.414062 -5.1875 Z M 3.414062 -5.1875 C 3.414062 -3.574219 3.628906 -2.476562 4.058594 -1.898438 C 4.21875 -1.683594 4.351562 -1.542969 4.457031 -1.480469 C 4.433594 -1.496094 4.40625 -1.5 4.367188 -1.5 C 4.476562 -1.5 4.632812 -1.554688 4.832031 -1.667969 C 5.222656 -1.882812 5.65625 -2.25 6.136719 -2.769531 C 7.167969 -3.886719 7.953125 -5.710938 8.484375 -8.238281 C 8.902344 -10.261719 9.050781 -11.824219 8.933594 -12.929688 C 8.832031 -13.910156 8.660156 -14.617188 8.410156 -15.050781 C 8.058594 -15.664062 7.734375 -16.132812 7.433594 -16.449219 C 6.570312 -17.371094 6 -18.304688 5.726562 -19.261719 L 5.292969 -20.78125 L 6.167969 -22.09375 C 6.566406 -22.691406 7.035156 -23.234375 7.578125 -23.726562 C 7.585938 -23.734375 7.59375 -23.742188 7.597656 -23.746094 C 7.589844 -23.734375 7.578125 -23.722656 7.5625 -23.703125 C 7.496094 -23.613281 7.4375 -23.507812 7.386719 -23.378906 L 10.554688 -22.109375 L 7.316406 -23.191406 C 7.210938 -22.875 7.179688 -22.566406 7.21875 -22.273438 C 7.226562 -22.207031 7.238281 -22.144531 7.253906 -22.09375 L 7.253906 -22.089844 C 7.410156 -21.742188 7.667969 -21.449219 8.027344 -21.21875 C 8.378906 -20.996094 8.734375 -20.882812 9.097656 -20.882812 C 9.253906 -20.882812 9.371094 -20.90625 9.449219 -20.953125 C 9.34375 -20.890625 9.195312 -20.75 9.011719 -20.535156 C 8.328125 -19.734375 7.671875 -18.667969 7.042969 -17.335938 C 6.339844 -15.84375 5.707031 -14.265625 5.140625 -12.597656 C 4.578125 -10.933594 4.140625 -9.390625 3.835938 -7.96875 C 3.554688 -6.660156 3.414062 -5.734375 3.414062 -5.1875 Z M 3.414062 -5.1875 "/></g></g></g><g fill="#fffef9" fill-opacity="1"><g transform="translate(100.100503, 88.616657)"><g><path d="M 44.558594 3.460938 L 45.5625 -6.039062 L 47.660156 -22.320312 C 48.332031 -27.417969 49.050781 -32.40625 49.8125 -37.289062 C 50.578125 -42.183594 51.464844 -47.203125 52.476562 -52.339844 C 53.480469 -57.46875 54.65625 -62.992188 56 -68.90625 L 59.328125 -68.152344 L 59.328125 -64.742188 C 58.417969 -64.742188 57.113281 -64.601562 55.410156 -64.328125 C 53.558594 -64.03125 51.507812 -63.671875 49.261719 -63.25 C 47.027344 -62.835938 44.796875 -62.375 42.566406 -61.867188 L 36.332031 -60.457031 L 31.972656 -59.457031 L 31.210938 -62.785156 L 32.101562 -59.492188 L 25.550781 -57.714844 C 23.464844 -57.148438 21.34375 -56.539062 19.195312 -55.882812 C 18.179688 -55.582031 16.875 -55.167969 15.273438 -54.632812 C 13.761719 -54.128906 12.351562 -53.570312 11.046875 -52.960938 C 10.53125 -52.71875 10.125 -52.492188 9.824219 -52.269531 C 9.726562 -52.199219 9.644531 -52.132812 9.585938 -52.074219 L 9.574219 -52.066406 L 6.734375 -53.957031 L 9.996094 -54.960938 L 9.988281 -54.960938 C 9.964844 -54.988281 9.945312 -55.007812 9.929688 -55.015625 C 10.703125 -54.527344 11.4375 -54 12.140625 -53.4375 L 10.007812 -50.773438 L 12.015625 -53.535156 L 22.660156 -45.800781 C 27.8125 -41.917969 32.339844 -37.648438 36.238281 -32.992188 C 40.207031 -28.246094 43.382812 -22.816406 45.765625 -16.707031 C 47.332031 -12.816406 48.410156 -9.671875 48.992188 -7.265625 C 49.566406 -4.917969 49.964844 -2.964844 50.191406 -1.402344 C 50.378906 -0.117188 50.660156 1.140625 51.035156 2.375 L 47.769531 3.367188 L 50.9375 2.097656 L 51.121094 2.554688 L 47.953125 3.820312 Z M 51.347656 4.179688 L 44.785156 5.089844 L 44.546875 4.5 L 44.507812 4.359375 C 44.03125 2.800781 43.675781 1.207031 43.4375 -0.417969 C 43.242188 -1.769531 42.882812 -3.511719 42.363281 -5.652344 C 41.855469 -7.738281 40.871094 -10.597656 39.40625 -14.230469 C 37.296875 -19.644531 34.496094 -24.4375 31.003906 -28.609375 C 27.441406 -32.871094 23.324219 -36.757812 18.648438 -40.277344 L 7.9375 -48.058594 L 7.878906 -48.109375 C 7.367188 -48.515625 6.828125 -48.902344 6.265625 -49.257812 C 4.890625 -50.132812 3.960938 -51.367188 3.472656 -52.953125 L 2.996094 -54.503906 L 3.894531 -55.851562 C 4.730469 -57.109375 6.152344 -58.203125 8.152344 -59.140625 C 9.699219 -59.863281 11.351562 -60.519531 13.117188 -61.109375 C 14.792969 -61.667969 16.152344 -62.101562 17.203125 -62.40625 C 19.417969 -63.085938 21.609375 -63.71875 23.765625 -64.304688 L 30.382812 -66.09375 L 34.824219 -67.113281 L 41.054688 -68.523438 C 43.375 -69.046875 45.691406 -69.527344 48.007812 -69.960938 C 50.3125 -70.390625 52.417969 -70.757812 54.324219 -71.066406 C 56.386719 -71.398438 58.050781 -71.566406 59.328125 -71.566406 L 63.597656 -71.566406 L 62.65625 -67.398438 C 61.328125 -61.546875 60.167969 -56.089844 59.171875 -51.027344 C 58.179688 -45.972656 57.308594 -41.042969 56.554688 -36.234375 C 55.800781 -31.40625 55.09375 -26.480469 54.429688 -21.449219 L 52.335938 -5.207031 L 48.953125 -5.640625 L 52.347656 -5.28125 Z M 0.226562 -54.59375 C 0.226562 -56.234375 0.84375 -57.699219 2.078125 -58.996094 C 2.851562 -59.808594 3.71875 -60.539062 4.679688 -61.191406 C 5.472656 -61.734375 6.132812 -62.167969 6.652344 -62.492188 L 6.886719 -62.640625 L 13.980469 -65.609375 L 14.082031 -65.644531 C 21.238281 -68.113281 28.535156 -70.179688 35.96875 -71.847656 C 43.40625 -73.511719 50.855469 -74.746094 58.324219 -75.550781 C 58.601562 -75.582031 58.804688 -75.621094 58.933594 -75.65625 C 58.660156 -75.578125 58.363281 -75.382812 58.050781 -75.070312 C 57.953125 -74.972656 57.863281 -74.828125 57.78125 -74.636719 C 58.214844 -75.644531 58.960938 -76.34375 60.023438 -76.734375 C 60.546875 -76.929688 61.136719 -77.023438 61.785156 -77.023438 C 62.359375 -77.023438 62.835938 -77 63.210938 -76.949219 C 64.636719 -76.757812 65.628906 -76.09375 66.199219 -74.957031 C 66.222656 -74.914062 66.253906 -74.851562 66.300781 -74.777344 C 65.960938 -75.339844 65.507812 -75.753906 64.941406 -76.015625 C 64.792969 -76.082031 64.664062 -76.128906 64.546875 -76.15625 C 64.617188 -76.140625 64.777344 -76.125 65.027344 -76.105469 L 64.785156 -72.703125 L 64.785156 -76.113281 L 66.242188 -76.113281 C 67.183594 -76.113281 68.214844 -76.128906 69.335938 -76.160156 C 70.519531 -76.191406 71.640625 -76.207031 72.703125 -76.207031 L 74.515625 -76.207031 L 78.195312 -75.824219 C 79.953125 -75.636719 82.027344 -75.394531 84.417969 -75.085938 C 86.820312 -74.777344 89.277344 -74.425781 91.800781 -74.023438 C 94.359375 -73.621094 96.75 -73.164062 98.976562 -72.664062 C 101.316406 -72.136719 103.238281 -71.566406 104.75 -70.945312 C 107.496094 -69.824219 108.871094 -68.164062 108.871094 -65.96875 C 108.871094 -64.78125 108.605469 -63.777344 108.074219 -62.953125 C 107.660156 -62.316406 107.121094 -61.828125 106.460938 -61.484375 C 105.84375 -61.167969 105.175781 -61.011719 104.457031 -61.011719 C 103.714844 -61.011719 102.871094 -61.144531 101.929688 -61.414062 C 101.328125 -61.585938 100.5625 -61.789062 99.628906 -62.023438 C 97.894531 -62.425781 95.824219 -62.851562 93.417969 -63.296875 C 91.015625 -63.742188 88.503906 -64.140625 85.890625 -64.5 C 83.273438 -64.855469 80.78125 -65.136719 78.410156 -65.34375 C 76.082031 -65.546875 74.121094 -65.648438 72.519531 -65.648438 C 71.054688 -65.648438 69.753906 -65.59375 68.621094 -65.484375 C 67.265625 -65.351562 65.683594 -65.285156 63.875 -65.285156 L 63.875 -68.699219 L 67.113281 -67.621094 C 67.09375 -67.558594 66.957031 -66.949219 66.710938 -65.800781 C 66.441406 -64.539062 66.140625 -63.09375 65.808594 -61.464844 C 65.480469 -59.855469 65.199219 -58.382812 64.960938 -57.046875 C 64.726562 -55.71875 64.578125 -54.863281 64.523438 -54.476562 L 64.515625 -54.421875 L 59.59375 -26.613281 C 58.816406 -21.660156 58.144531 -16.851562 57.574219 -12.1875 C 56.996094 -7.46875 56.371094 -2.675781 55.699219 2.195312 C 55.527344 3.460938 55.398438 4.640625 55.3125 5.726562 C 55.21875 6.9375 55.074219 8.269531 54.886719 9.722656 L 51.5 9.28125 L 54.894531 9.625 L 51.894531 39.199219 C 51.835938 39.765625 51.78125 40.484375 51.722656 41.355469 C 51.636719 42.597656 51.402344 43.742188 51.011719 44.78125 C 50.648438 45.75 50.09375 46.523438 49.347656 47.101562 C 48.496094 47.761719 47.515625 48.089844 46.40625 48.089844 C 44.996094 48.089844 43.859375 47.585938 42.996094 46.578125 C 43.039062 46.628906 43.078125 46.667969 43.117188 46.699219 L 43.101562 46.691406 L 41.328125 45.628906 L 43 17.722656 L 46.40625 17.925781 L 42.992188 17.925781 C 42.992188 15.445312 42.832031 12.78125 42.515625 9.933594 C 42.191406 7.054688 41.75 4.1875 41.191406 1.339844 C 40.632812 -1.511719 40.03125 -4.078125 39.390625 -6.351562 C 38.523438 -9.59375 37.523438 -12.445312 36.390625 -14.90625 C 35.246094 -17.394531 33.949219 -19.746094 32.496094 -21.972656 C 31.007812 -24.246094 29.328125 -26.554688 27.453125 -28.898438 C 26.304688 -30.375 24.910156 -31.808594 23.269531 -33.207031 C 21.5 -34.707031 19.675781 -36.164062 17.789062 -37.578125 C 15.859375 -39.027344 14.109375 -40.324219 12.546875 -41.46875 L 4.296875 -47.359375 C 3.375 -48.027344 2.550781 -48.808594 1.816406 -49.703125 C 0.757812 -51 0.226562 -52.628906 0.226562 -54.59375 Z M 7.050781 -54.59375 C 7.050781 -54.351562 7.070312 -54.164062 7.113281 -54.027344 L 7.097656 -54.027344 C 7.460938 -53.585938 7.847656 -53.214844 8.261719 -52.914062 L 16.570312 -46.976562 C 18.160156 -45.816406 19.929688 -44.503906 21.882812 -43.039062 C 23.878906 -41.542969 25.816406 -39.996094 27.6875 -38.40625 C 29.6875 -36.707031 31.382812 -34.957031 32.78125 -33.160156 C 34.792969 -30.648438 36.601562 -28.164062 38.207031 -25.707031 C 39.84375 -23.199219 41.308594 -20.550781 42.589844 -17.757812 C 43.882812 -14.945312 45.007812 -11.761719 45.960938 -8.207031 C 46.652344 -5.75 47.296875 -3.007812 47.890625 0.0273438 C 48.484375 3.058594 48.953125 6.109375 49.296875 9.171875 C 49.644531 12.273438 49.816406 15.191406 49.816406 17.925781 L 49.816406 18.027344 L 48.265625 43.972656 L 44.859375 43.765625 L 46.613281 40.839844 C 47.234375 41.210938 47.753906 41.644531 48.175781 42.136719 C 47.679688 41.554688 47.089844 41.265625 46.40625 41.265625 C 45.960938 41.265625 45.550781 41.410156 45.167969 41.707031 C 44.894531 41.917969 44.710938 42.144531 44.621094 42.386719 C 44.777344 41.972656 44.875 41.476562 44.910156 40.902344 C 44.976562 39.953125 45.039062 39.15625 45.105469 38.507812 L 48.113281 8.886719 L 48.117188 8.839844 C 48.292969 7.503906 48.421875 6.285156 48.507812 5.191406 C 48.605469 3.972656 48.75 2.664062 48.941406 1.265625 C 49.605469 -3.574219 50.222656 -8.332031 50.796875 -13.015625 C 51.378906 -17.757812 52.070312 -22.683594 52.871094 -27.800781 L 57.785156 -55.554688 L 61.144531 -54.957031 L 57.769531 -55.441406 C 57.835938 -55.90625 57.992188 -56.835938 58.242188 -58.242188 C 58.488281 -59.632812 58.78125 -61.164062 59.121094 -62.828125 C 59.457031 -64.476562 59.765625 -65.945312 60.039062 -67.230469 C 60.339844 -68.628906 60.539062 -69.476562 60.640625 -69.777344 L 61.417969 -72.109375 L 63.875 -72.109375 C 65.464844 -72.109375 66.824219 -72.167969 67.957031 -72.277344 C 69.3125 -72.410156 70.832031 -72.476562 72.519531 -72.476562 C 74.316406 -72.476562 76.480469 -72.363281 79.003906 -72.144531 C 81.488281 -71.925781 84.089844 -71.632812 86.8125 -71.261719 C 89.535156 -70.890625 92.152344 -70.472656 94.660156 -70.007812 C 97.167969 -69.542969 99.375 -69.085938 101.28125 -68.640625 C 102.289062 -68.390625 103.128906 -68.167969 103.804688 -67.976562 C 104.132812 -67.882812 104.351562 -67.835938 104.457031 -67.835938 C 104.074219 -67.835938 103.699219 -67.742188 103.332031 -67.550781 C 102.917969 -67.339844 102.589844 -67.042969 102.34375 -66.664062 C 102.203125 -66.441406 102.105469 -66.226562 102.0625 -66.011719 C 102.054688 -65.972656 102.046875 -65.945312 102.046875 -65.921875 C 102.046875 -65.929688 102.046875 -65.945312 102.046875 -65.96875 C 102.046875 -65.574219 102.136719 -65.210938 102.3125 -64.875 C 102.414062 -64.675781 102.53125 -64.519531 102.664062 -64.398438 C 102.683594 -64.382812 102.695312 -64.371094 102.703125 -64.367188 C 102.6875 -64.378906 102.664062 -64.390625 102.628906 -64.410156 C 102.511719 -64.480469 102.359375 -64.550781 102.164062 -64.628906 C 101.007812 -65.105469 99.445312 -65.5625 97.476562 -66.007812 C 95.394531 -66.476562 93.144531 -66.902344 90.730469 -67.285156 C 88.277344 -67.671875 85.882812 -68.019531 83.550781 -68.316406 C 81.210938 -68.617188 79.191406 -68.855469 77.492188 -69.035156 L 73.988281 -69.398438 L 74.339844 -72.792969 L 74.339844 -69.382812 L 72.703125 -69.382812 C 71.699219 -69.382812 70.640625 -69.367188 69.515625 -69.335938 C 68.332031 -69.304688 67.242188 -69.289062 66.242188 -69.289062 L 64.664062 -69.289062 L 64.542969 -69.296875 C 63.945312 -69.339844 63.449219 -69.40625 63.042969 -69.5 C 61.859375 -69.765625 60.996094 -70.355469 60.449219 -71.265625 C 60.3125 -71.492188 60.195312 -71.703125 60.097656 -71.902344 C 60.492188 -71.113281 61.089844 -70.574219 61.894531 -70.292969 C 62.050781 -70.234375 62.191406 -70.199219 62.308594 -70.183594 C 62.234375 -70.195312 62.058594 -70.199219 61.785156 -70.199219 C 61.945312 -70.199219 62.144531 -70.242188 62.382812 -70.332031 C 63.15625 -70.617188 63.714844 -71.15625 64.054688 -71.949219 C 63.792969 -71.335938 63.398438 -70.765625 62.875 -70.242188 C 62.351562 -69.71875 61.65625 -69.332031 60.789062 -69.089844 C 60.328125 -68.957031 59.75 -68.851562 59.054688 -68.761719 C 51.84375 -67.988281 44.644531 -66.796875 37.460938 -65.1875 C 30.277344 -63.578125 23.222656 -61.578125 16.308594 -59.195312 L 15.195312 -62.421875 L 16.515625 -59.273438 L 9.78125 -56.453125 L 8.460938 -59.597656 L 10.269531 -56.707031 C 9.824219 -56.425781 9.238281 -56.039062 8.515625 -55.550781 C 7.957031 -55.171875 7.460938 -54.75 7.019531 -54.289062 C 6.992188 -54.257812 6.972656 -54.234375 6.960938 -54.21875 C 6.96875 -54.226562 6.976562 -54.242188 6.984375 -54.265625 C 7.03125 -54.367188 7.050781 -54.476562 7.050781 -54.59375 Z M 7.050781 -54.59375 "/></g></g></g><g fill="#fffef9" fill-opacity="1"><g transform="translate(160.149978, 88.616657)"><g><path d="M 1.273438 3.046875 C 0 3.046875 -1.0625 2.605469 -1.914062 1.714844 C -2.589844 1.011719 -3.015625 0.121094 -3.1875 -0.960938 C -3.351562 -1.980469 -3.390625 -3.042969 -3.3125 -4.15625 C -3.257812 -4.925781 -3.230469 -5.359375 -3.230469 -5.460938 L 0.183594 -5.460938 L -3.226562 -5.269531 C -3.289062 -6.457031 -3.308594 -7.65625 -3.273438 -8.871094 C -3.246094 -9.90625 -3.261719 -10.953125 -3.316406 -12.011719 L -3.320312 -12.101562 L -3.320312 -12.191406 C -3.320312 -12.648438 -3.304688 -13.480469 -3.273438 -14.691406 C -3.242188 -15.972656 -3.144531 -17.332031 -2.980469 -18.765625 C -2.804688 -20.316406 -2.53125 -21.679688 -2.164062 -22.855469 C -1.882812 -23.757812 -1.503906 -24.5 -1.035156 -25.082031 C -0.152344 -26.164062 0.949219 -26.707031 2.273438 -26.707031 C 3.542969 -26.707031 4.609375 -26.429688 5.476562 -25.878906 C 6.125 -25.46875 6.632812 -24.933594 6.996094 -24.277344 C 7.335938 -23.65625 7.523438 -22.976562 7.550781 -22.242188 C 7.585938 -21.300781 7.535156 -20.117188 7.402344 -18.695312 L 7.394531 -18.613281 L 7.382812 -18.535156 C 7.34375 -18.269531 7.324219 -17.960938 7.324219 -17.605469 L 7.324219 -16.105469 C 7.324219 -15.128906 7.234375 -14.375 7.058594 -13.84375 C 7.117188 -14.019531 7.148438 -14.148438 7.15625 -14.230469 C 7.148438 -14.117188 7.144531 -13.957031 7.144531 -13.738281 L 3.730469 -13.738281 L 1.722656 -16.5 C 2.175781 -16.828125 2.585938 -17.210938 2.960938 -17.644531 C 4.1875 -19.074219 6.019531 -19.789062 8.460938 -19.789062 C 8.835938 -19.789062 9.347656 -19.804688 9.996094 -19.832031 C 10.746094 -19.867188 11.535156 -19.882812 12.375 -19.882812 C 13.859375 -19.882812 15.25 -19.796875 16.550781 -19.625 C 17.644531 -19.480469 18.554688 -19.171875 19.277344 -18.695312 C 19.867188 -18.308594 20.332031 -17.820312 20.671875 -17.238281 C 21.054688 -16.582031 21.246094 -15.871094 21.246094 -15.105469 C 21.246094 -13.996094 20.914062 -13.03125 20.25 -12.210938 C 19.636719 -11.453125 18.828125 -10.929688 17.816406 -10.640625 C 16.875 -10.371094 15.789062 -10.238281 14.558594 -10.238281 C 13.898438 -10.238281 13.222656 -10.253906 12.53125 -10.285156 C 11.949219 -10.3125 11.441406 -10.328125 11.011719 -10.328125 C 9.664062 -10.328125 8.867188 -10.289062 8.625 -10.210938 C 8.828125 -10.277344 8.996094 -10.359375 9.136719 -10.460938 C 9.164062 -10.476562 9.183594 -10.492188 9.199219 -10.507812 C 9.191406 -10.5 9.183594 -10.492188 9.167969 -10.476562 C 9.007812 -10.304688 8.808594 -10.019531 8.566406 -9.617188 L 5.640625 -11.375 L 8.644531 -9.757812 C 8.265625 -9.054688 7.898438 -8.289062 7.542969 -7.46875 C 7.261719 -6.816406 7.050781 -6.078125 6.914062 -5.261719 L 6.898438 -5.160156 L 6.875 -5.054688 C 6.757812 -4.558594 6.710938 -4.039062 6.730469 -3.488281 C 6.777344 -2.191406 6.617188 -1.046875 6.25 -0.046875 C 5.828125 1.097656 5.058594 1.941406 3.941406 2.488281 C 3.171875 2.863281 2.285156 3.046875 1.273438 3.046875 Z M 1.273438 -3.777344 C 1.300781 -3.777344 1.324219 -3.777344 1.339844 -3.777344 C 1.335938 -3.777344 1.328125 -3.777344 1.3125 -3.773438 C 1.203125 -3.753906 1.082031 -3.710938 0.949219 -3.648438 C 0.425781 -3.390625 0.0546875 -2.976562 -0.152344 -2.40625 C -0.0976562 -2.5625 -0.0742188 -2.84375 -0.0898438 -3.246094 C -0.128906 -4.394531 -0.0273438 -5.507812 0.222656 -6.589844 L 3.546875 -5.824219 L 0.183594 -6.382812 C 0.410156 -7.75 0.777344 -9.015625 1.28125 -10.183594 C 1.714844 -11.183594 2.167969 -12.117188 2.636719 -12.992188 L 2.675781 -13.0625 L 2.714844 -13.128906 C 3.886719 -15.082031 5.171875 -16.277344 6.570312 -16.71875 C 7.480469 -17.007812 8.960938 -17.152344 11.011719 -17.152344 C 11.550781 -17.152344 12.164062 -17.136719 12.855469 -17.101562 C 13.4375 -17.074219 14.007812 -17.0625 14.558594 -17.0625 C 15.148438 -17.0625 15.609375 -17.109375 15.941406 -17.203125 C 15.566406 -17.097656 15.234375 -16.859375 14.941406 -16.496094 C 14.59375 -16.070312 14.421875 -15.605469 14.421875 -15.105469 C 14.421875 -14.640625 14.542969 -14.203125 14.78125 -13.792969 C 14.976562 -13.457031 15.226562 -13.191406 15.527344 -12.992188 C 15.65625 -12.910156 15.765625 -12.851562 15.859375 -12.824219 C 15.828125 -12.835938 15.757812 -12.847656 15.660156 -12.859375 C 14.65625 -12.992188 13.558594 -13.058594 12.375 -13.058594 C 11.636719 -13.058594 10.941406 -13.042969 10.292969 -13.015625 C 9.546875 -12.984375 8.9375 -12.964844 8.460938 -12.964844 C 8.128906 -12.964844 7.890625 -12.941406 7.75 -12.898438 C 7.871094 -12.9375 8 -13.039062 8.140625 -13.203125 C 7.421875 -12.363281 6.621094 -11.621094 5.738281 -10.980469 L 0.316406 -7.039062 L 0.316406 -13.738281 C 0.316406 -14.714844 0.40625 -15.46875 0.585938 -16 C 0.527344 -15.828125 0.492188 -15.699219 0.488281 -15.617188 C 0.496094 -15.726562 0.5 -15.890625 0.5 -16.105469 L 0.5 -17.605469 C 0.5 -18.285156 0.542969 -18.914062 0.625 -19.5 L 4.003906 -19.015625 L 0.605469 -19.339844 C 0.714844 -20.464844 0.753906 -21.34375 0.730469 -21.980469 C 0.742188 -21.636719 0.839844 -21.304688 1.019531 -20.980469 C 1.21875 -20.617188 1.488281 -20.332031 1.824219 -20.117188 C 2.011719 -19.996094 2.1875 -19.917969 2.355469 -19.882812 C 2.375 -19.878906 2.386719 -19.878906 2.386719 -19.878906 C 2.359375 -19.878906 2.320312 -19.882812 2.273438 -19.882812 C 2.738281 -19.882812 3.171875 -19.992188 3.578125 -20.214844 C 3.855469 -20.367188 4.082031 -20.554688 4.261719 -20.777344 C 4.335938 -20.867188 4.382812 -20.941406 4.414062 -21 C 4.398438 -20.964844 4.375 -20.90625 4.347656 -20.820312 C 4.109375 -20.054688 3.925781 -19.113281 3.800781 -17.996094 C 3.660156 -16.757812 3.574219 -15.601562 3.546875 -14.515625 C 3.519531 -13.363281 3.503906 -12.589844 3.503906 -12.191406 L 0.0898438 -12.191406 L 3.5 -12.371094 C 3.5625 -11.128906 3.582031 -9.902344 3.546875 -8.6875 C 3.519531 -7.660156 3.535156 -6.648438 3.589844 -5.648438 L 3.59375 -5.554688 L 3.59375 -5.460938 C 3.59375 -5.195312 3.5625 -4.601562 3.496094 -3.667969 C 3.453125 -3.082031 3.472656 -2.539062 3.550781 -2.039062 C 3.5 -2.363281 3.320312 -2.6875 3.007812 -3.011719 C 2.519531 -3.519531 1.941406 -3.777344 1.273438 -3.777344 Z M 1.273438 -3.777344 "/></g></g></g><g fill="#fffef9" fill-opacity="1"><g transform="translate(174.980387, 88.616657)"><g><path d="M -3.414062 -9.191406 C -3.414062 -10.820312 -3.054688 -12.75 -2.335938 -14.96875 C -1.652344 -17.089844 -0.703125 -19.183594 0.519531 -21.253906 C 1.804688 -23.429688 3.304688 -25.25 5.023438 -26.710938 C 7.085938 -28.46875 9.324219 -29.34375 11.738281 -29.34375 C 14.089844 -29.34375 16.050781 -28.613281 17.613281 -27.152344 C 19.054688 -25.808594 19.9375 -24.34375 20.265625 -22.757812 C 20.554688 -21.363281 20.347656 -20.160156 19.640625 -19.136719 C 19.179688 -18.464844 18.5625 -17.972656 17.789062 -17.664062 C 17.246094 -17.445312 16.652344 -17.332031 16.015625 -17.332031 C 14.40625 -17.332031 12.941406 -18.054688 11.628906 -19.492188 C 11.609375 -19.511719 11.597656 -19.527344 11.589844 -19.53125 C 11.609375 -19.515625 11.632812 -19.503906 11.664062 -19.488281 C 11.753906 -19.445312 11.835938 -19.425781 11.917969 -19.425781 C 12.113281 -19.425781 12.246094 -19.445312 12.320312 -19.480469 C 12.164062 -19.402344 11.960938 -19.257812 11.703125 -19.042969 C 11.066406 -18.511719 10.183594 -17.265625 9.050781 -15.304688 L 9.019531 -15.253906 L 8.988281 -15.207031 C 8.527344 -14.464844 8.082031 -13.449219 7.648438 -12.160156 C 7.25 -10.964844 7.050781 -9.792969 7.050781 -8.644531 L 3.640625 -8.644531 L 1.226562 -11.058594 L 1.371094 -11.203125 L 6.199219 -6.375 L 6.1875 -6.367188 L 6.183594 -6.363281 L 1.359375 -11.1875 L 1.683594 -11.511719 L 4.09375 -9.097656 L 1.253906 -10.992188 L 1.984375 -12.082031 C 2.417969 -12.734375 2.929688 -13.59375 3.519531 -14.664062 C 4.160156 -15.824219 4.816406 -17 5.488281 -18.191406 C 6.199219 -19.449219 6.851562 -20.519531 7.441406 -21.410156 C 7.851562 -22.023438 8.25 -22.519531 8.640625 -22.894531 C 9.515625 -23.738281 10.484375 -24.160156 11.554688 -24.160156 C 12.75 -24.160156 13.78125 -23.890625 14.648438 -23.351562 C 15.773438 -22.65625 16.488281 -21.648438 16.792969 -20.332031 C 17.039062 -19.261719 17.144531 -18.003906 17.105469 -16.5625 C 17.082031 -15.675781 17.164062 -14.789062 17.351562 -13.898438 C 17.566406 -12.929688 17.820312 -12.300781 18.109375 -12.011719 C 18.183594 -11.9375 18.242188 -11.890625 18.285156 -11.871094 L 18.289062 -11.875 C 18.554688 -11.875 18.902344 -11.992188 19.332031 -12.226562 C 19.988281 -12.585938 20.714844 -13.167969 21.519531 -13.96875 L 21.5625 -14.011719 L 21.609375 -14.054688 C 22.285156 -14.683594 22.734375 -15.160156 22.960938 -15.480469 C 23.40625 -16.109375 23.980469 -16.8125 24.679688 -17.582031 L 27.207031 -15.285156 L 24.410156 -17.242188 C 24.925781 -17.976562 25.546875 -18.546875 26.277344 -18.953125 C 27.066406 -19.390625 27.921875 -19.609375 28.84375 -19.609375 C 29.628906 -19.609375 30.347656 -19.417969 31 -19.035156 C 31.691406 -18.628906 32.222656 -18.0625 32.597656 -17.335938 C 33.035156 -16.476562 33.207031 -15.445312 33.109375 -14.238281 C 33.015625 -13.050781 32.484375 -11.78125 31.523438 -10.429688 C 30.804688 -9.421875 29.792969 -8.285156 28.496094 -7.019531 L 28.375 -6.902344 L 25.421875 -4.539062 L 25.320312 -4.46875 C 22.980469 -2.855469 20.636719 -2.046875 18.289062 -2.046875 C 15.964844 -2.046875 13.929688 -2.757812 12.183594 -4.175781 C 10.644531 -5.421875 9.460938 -6.957031 8.632812 -8.777344 C 7.820312 -10.5625 7.414062 -12.335938 7.414062 -14.105469 L 10.828125 -14.105469 L 12.8125 -11.328125 C 12.886719 -11.382812 12.945312 -11.429688 12.988281 -11.472656 C 12.96875 -11.457031 12.941406 -11.421875 12.90625 -11.367188 C 12.757812 -11.164062 12.585938 -10.878906 12.386719 -10.503906 L 10.609375 -7.171875 C 9.882812 -5.828125 9.132812 -4.644531 8.359375 -3.625 C 7.011719 -1.84375 5.4375 -0.957031 3.640625 -0.957031 C 0.484375 -0.957031 -1.578125 -2.011719 -2.550781 -4.121094 C -3.125 -5.363281 -3.414062 -7.050781 -3.414062 -9.191406 Z M 3.414062 -9.191406 C 3.414062 -8.050781 3.488281 -7.316406 3.644531 -6.980469 C 3.4375 -7.425781 3.160156 -7.71875 2.8125 -7.851562 C 2.933594 -7.804688 3.210938 -7.78125 3.640625 -7.78125 C 3.292969 -7.78125 3 -7.703125 2.761719 -7.546875 C 2.746094 -7.535156 2.730469 -7.523438 2.722656 -7.515625 C 2.726562 -7.519531 2.730469 -7.527344 2.742188 -7.535156 C 2.792969 -7.585938 2.855469 -7.660156 2.921875 -7.75 C 3.484375 -8.488281 4.039062 -9.367188 4.589844 -10.386719 L 6.355469 -13.699219 C 7.152344 -15.203125 7.984375 -16.265625 8.84375 -16.878906 L 14.242188 -20.734375 L 14.242188 -14.105469 C 14.242188 -13.324219 14.441406 -12.488281 14.84375 -11.601562 C 15.230469 -10.757812 15.773438 -10.046875 16.480469 -9.476562 C 16.976562 -9.074219 17.578125 -8.871094 18.289062 -8.871094 C 19.21875 -8.871094 20.273438 -9.277344 21.449219 -10.089844 L 23.386719 -7.28125 L 21.253906 -9.945312 L 23.984375 -12.128906 L 26.113281 -9.464844 L 23.734375 -11.90625 C 24.738281 -12.886719 25.480469 -13.714844 25.960938 -14.386719 C 26.136719 -14.632812 26.261719 -14.835938 26.332031 -14.992188 C 26.339844 -15.007812 26.347656 -15.023438 26.351562 -15.035156 C 26.351562 -15.03125 26.347656 -15.027344 26.347656 -15.019531 C 26.328125 -14.957031 26.316406 -14.878906 26.308594 -14.789062 C 26.3125 -14.832031 26.3125 -14.867188 26.3125 -14.894531 C 26.3125 -14.890625 26.3125 -14.875 26.316406 -14.851562 C 26.339844 -14.65625 26.410156 -14.441406 26.527344 -14.21875 C 26.753906 -13.769531 27.09375 -13.414062 27.546875 -13.148438 C 27.960938 -12.90625 28.390625 -12.785156 28.84375 -12.785156 C 29.101562 -12.785156 29.347656 -12.851562 29.589844 -12.984375 C 29.777344 -13.089844 29.914062 -13.203125 30.003906 -13.328125 L 29.878906 -13.152344 L 29.730469 -12.992188 C 29.21875 -12.429688 28.820312 -11.945312 28.539062 -11.542969 C 28.039062 -10.835938 27.277344 -10.003906 26.253906 -9.054688 L 23.929688 -11.554688 L 26.34375 -9.144531 C 23.613281 -6.414062 20.929688 -5.050781 18.289062 -5.050781 C 16.375 -5.050781 14.707031 -5.761719 13.28125 -7.1875 C 12.054688 -8.414062 11.1875 -10.179688 10.671875 -12.492188 C 10.375 -13.90625 10.246094 -15.320312 10.28125 -16.742188 C 10.304688 -17.605469 10.257812 -18.289062 10.140625 -18.796875 C 10.265625 -18.265625 10.570312 -17.851562 11.054688 -17.550781 C 11.21875 -17.449219 11.378906 -17.378906 11.53125 -17.34375 C 11.558594 -17.339844 11.582031 -17.335938 11.601562 -17.332031 C 11.59375 -17.332031 11.578125 -17.332031 11.554688 -17.332031 C 12.074219 -17.332031 12.550781 -17.453125 12.980469 -17.695312 C 13.140625 -17.785156 13.273438 -17.882812 13.378906 -17.984375 C 13.34375 -17.949219 13.257812 -17.828125 13.121094 -17.625 C 12.621094 -16.875 12.058594 -15.949219 11.433594 -14.839844 C 10.773438 -13.664062 10.125 -12.503906 9.492188 -11.359375 C 8.808594 -10.125 8.199219 -9.105469 7.660156 -8.296875 L 6.746094 -6.925781 L 6.183594 -6.363281 C 5.863281 -6.042969 5.496094 -5.796875 5.078125 -5.625 C 4.660156 -5.449219 4.222656 -5.363281 3.769531 -5.363281 C 3.320312 -5.363281 2.882812 -5.449219 2.464844 -5.625 C 2.046875 -5.796875 1.679688 -6.042969 1.359375 -6.363281 C 1.039062 -6.683594 0.792969 -7.050781 0.617188 -7.46875 C 0.445312 -7.886719 0.359375 -8.324219 0.359375 -8.777344 C 0.359375 -9.226562 0.445312 -9.664062 0.617188 -10.082031 C 0.792969 -10.5 1.039062 -10.867188 1.359375 -11.1875 L 1.363281 -11.195312 L 1.371094 -11.203125 C 1.691406 -11.523438 2.0625 -11.769531 2.480469 -11.941406 C 2.898438 -12.117188 3.332031 -12.203125 3.785156 -12.203125 C 4.238281 -12.203125 4.671875 -12.117188 5.089844 -11.941406 C 5.507812 -11.769531 5.878906 -11.523438 6.199219 -11.203125 C 6.519531 -10.882812 6.765625 -10.515625 6.9375 -10.09375 C 7.109375 -9.675781 7.199219 -9.242188 7.199219 -8.789062 C 7.199219 -8.335938 7.109375 -7.902344 6.9375 -7.484375 C 6.765625 -7.066406 6.519531 -6.695312 6.199219 -6.375 L 0.226562 -0.40625 L 0.226562 -8.644531 C 0.226562 -10.53125 0.542969 -12.421875 1.175781 -14.316406 C 1.777344 -16.121094 2.453125 -17.625 3.203125 -18.824219 L 6.097656 -17.015625 L 3.144531 -18.726562 C 4.679688 -21.375 6.070312 -23.226562 7.316406 -24.269531 C 8.890625 -25.589844 10.425781 -26.25 11.917969 -26.25 C 13.773438 -26.25 15.355469 -25.53125 16.667969 -24.09375 C 16.722656 -24.035156 16.769531 -23.988281 16.804688 -23.957031 C 16.804688 -23.960938 16.789062 -23.96875 16.761719 -23.984375 C 16.554688 -24.101562 16.304688 -24.160156 16.015625 -24.160156 C 15.769531 -24.160156 15.511719 -24.105469 15.238281 -23.992188 C 14.742188 -23.792969 14.335938 -23.464844 14.023438 -23.011719 C 13.761719 -22.632812 13.613281 -22.230469 13.570312 -21.800781 C 13.554688 -21.628906 13.558594 -21.484375 13.582031 -21.375 C 13.546875 -21.546875 13.339844 -21.808594 12.957031 -22.164062 C 12.703125 -22.402344 12.296875 -22.519531 11.738281 -22.519531 C 10.996094 -22.519531 10.234375 -22.183594 9.445312 -21.515625 C 8.3125 -20.546875 7.292969 -19.304688 6.394531 -17.785156 C 5.433594 -16.152344 4.6875 -14.515625 4.15625 -12.875 C 3.660156 -11.335938 3.414062 -10.105469 3.414062 -9.191406 Z M 3.414062 -9.191406 "/></g></g></g><g fill="#fffef9" fill-opacity="1"><g transform="translate(201.365762, 88.616657)"><g><path d="M -3.320312 -9.917969 C -3.320312 -10.972656 -3.207031 -12.40625 -2.976562 -14.214844 C -2.75 -15.996094 -2.425781 -17.800781 -2.007812 -19.640625 C -1.5625 -21.589844 -1.019531 -23.273438 -0.382812 -24.695312 C 0.765625 -27.25 2.410156 -28.527344 4.550781 -28.527344 C 5.511719 -28.527344 6.292969 -28.375 6.894531 -28.074219 C 6.765625 -28.140625 6.652344 -28.183594 6.554688 -28.210938 C 6.574219 -28.207031 6.613281 -28.199219 6.675781 -28.1875 L 8.359375 -27.847656 L 9.09375 -26.292969 C 9.921875 -24.527344 10.042969 -22.464844 9.453125 -20.101562 C 9.082031 -18.617188 8.753906 -16.984375 8.464844 -15.199219 C 8.046875 -12.5625 7.699219 -10.230469 7.433594 -8.195312 C 7.214844 -6.542969 7.359375 -4.617188 7.875 -2.410156 L 4.550781 -1.636719 L 3.671875 -4.933594 C 3.636719 -4.925781 3.621094 -4.921875 3.613281 -4.917969 C 3.660156 -4.945312 3.722656 -4.984375 3.796875 -5.042969 C 4.050781 -5.25 4.335938 -5.5625 4.65625 -5.980469 C 5.519531 -7.117188 6.382812 -8.472656 7.238281 -10.046875 C 8.140625 -11.703125 8.921875 -13.261719 9.582031 -14.734375 L 11.207031 -18.304688 L 11.234375 -18.359375 C 11.488281 -18.867188 11.746094 -19.464844 12.011719 -20.152344 C 12.40625 -21.175781 12.882812 -22.109375 13.449219 -22.957031 C 13.917969 -23.660156 14.46875 -24.21875 15.097656 -24.632812 C 15.910156 -25.167969 16.789062 -25.433594 17.742188 -25.433594 C 19.023438 -25.433594 20.074219 -25 20.898438 -24.132812 C 21.675781 -23.316406 22.066406 -22.292969 22.066406 -21.066406 C 22.066406 -20.023438 21.828125 -18.859375 21.355469 -17.570312 C 21 -16.597656 20.613281 -15.628906 20.191406 -14.65625 C 19.773438 -13.691406 19.429688 -12.9375 19.15625 -12.394531 C 18.808594 -11.695312 18.246094 -10.515625 17.472656 -8.84375 C 16.644531 -7.066406 15.679688 -5.195312 14.574219 -3.234375 C 13.371094 -1.109375 12.050781 0.710938 10.613281 2.21875 C 8.699219 4.226562 6.644531 5.230469 4.457031 5.230469 C 2.667969 5.230469 1.042969 4.503906 -0.410156 3.050781 C -1.691406 1.769531 -2.519531 0.167969 -2.894531 -1.757812 C -3.179688 -3.21875 -3.320312 -4.738281 -3.320312 -6.324219 Z M 3.503906 -9.917969 L 3.503906 -6.324219 C 3.503906 -5.179688 3.605469 -4.09375 3.804688 -3.066406 C 3.914062 -2.503906 4.117188 -2.074219 4.414062 -1.777344 C 4.535156 -1.65625 4.625 -1.578125 4.6875 -1.550781 C 4.628906 -1.578125 4.554688 -1.59375 4.457031 -1.59375 C 4.5 -1.59375 4.574219 -1.621094 4.691406 -1.683594 C 4.980469 -1.835938 5.308594 -2.105469 5.675781 -2.492188 C 6.722656 -3.589844 7.707031 -4.957031 8.628906 -6.589844 C 9.648438 -8.394531 10.53125 -10.101562 11.28125 -11.71875 C 12.085938 -13.449219 12.675781 -14.691406 13.054688 -15.449219 C 13.269531 -15.878906 13.558594 -16.519531 13.929688 -17.371094 C 14.296875 -18.222656 14.636719 -19.070312 14.949219 -19.917969 C 15.144531 -20.449219 15.242188 -20.832031 15.242188 -21.066406 C 15.242188 -20.472656 15.480469 -19.925781 15.953125 -19.429688 C 16.476562 -18.882812 17.070312 -18.609375 17.742188 -18.609375 C 18.148438 -18.609375 18.515625 -18.714844 18.84375 -18.929688 C 18.988281 -19.023438 19.082031 -19.105469 19.125 -19.171875 C 18.84375 -18.746094 18.59375 -18.253906 18.378906 -17.703125 C 18.039062 -16.808594 17.691406 -16.011719 17.335938 -15.308594 L 14.285156 -16.832031 L 17.390625 -15.421875 L 15.804688 -11.925781 C 15.070312 -10.304688 14.214844 -8.589844 13.234375 -6.785156 C 12.210938 -4.90625 11.160156 -3.257812 10.085938 -1.84375 C 8.640625 0.046875 7.089844 1.214844 5.429688 1.660156 L 2.023438 2.566406 L 1.226562 -0.863281 C 0.527344 -3.875 0.339844 -6.617188 0.667969 -9.09375 C 0.941406 -11.183594 1.296875 -13.582031 1.726562 -16.285156 C 2.046875 -18.261719 2.414062 -20.085938 2.832031 -21.753906 C 3.027344 -22.546875 3.058594 -23.089844 2.917969 -23.386719 L 6.003906 -24.839844 L 5.335938 -21.496094 C 4.734375 -21.613281 4.234375 -21.773438 3.84375 -21.96875 C 4.144531 -21.820312 4.429688 -21.730469 4.695312 -21.699219 C 4.683594 -21.699219 4.636719 -21.703125 4.550781 -21.703125 C 5.160156 -21.703125 5.644531 -21.882812 6.007812 -22.246094 C 6.03125 -22.269531 6.046875 -22.289062 6.058594 -22.304688 C 6.054688 -22.296875 6.046875 -22.285156 6.035156 -22.265625 C 5.976562 -22.171875 5.910156 -22.050781 5.839844 -21.894531 C 5.386719 -20.886719 4.988281 -19.628906 4.644531 -18.121094 C 4.277344 -16.5 3.992188 -14.914062 3.792969 -13.355469 C 3.601562 -11.828125 3.503906 -10.683594 3.503906 -9.917969 Z M 3.503906 -9.917969 "/></g></g></g><g fill="#fffef9" fill-opacity="1"><g transform="translate(220.927342, 88.616657)"><g><path d="M 7.550781 3.777344 C 5.511719 3.777344 3.703125 3.117188 2.128906 1.796875 C 0.878906 0.746094 -0.09375 -0.378906 -0.777344 -1.582031 L -0.804688 -1.628906 L -0.832031 -1.679688 C -2.15625 -4.183594 -2.910156 -7.097656 -3.089844 -10.417969 C -3.257812 -13.535156 -3.066406 -16.394531 -2.519531 -18.992188 L 0.820312 -18.289062 L -2.539062 -18.898438 C -2.410156 -19.613281 -2.230469 -20.464844 -2.007812 -21.453125 C -1.71875 -22.734375 -1.273438 -23.890625 -0.671875 -24.921875 C -0.210938 -25.714844 0.351562 -26.34375 1.011719 -26.808594 C 1.859375 -27.40625 2.796875 -27.707031 3.820312 -27.707031 C 5.226562 -27.707031 6.390625 -27.390625 7.316406 -26.753906 C 8 -26.28125 8.511719 -25.675781 8.855469 -24.933594 C 9.164062 -24.269531 9.304688 -23.546875 9.28125 -22.773438 C 9.242188 -21.59375 8.953125 -19.90625 8.410156 -17.703125 C 7.988281 -15.996094 7.78125 -13.738281 7.78125 -10.917969 C 7.78125 -10.222656 7.882812 -9.34375 8.082031 -8.28125 C 8.261719 -7.347656 8.527344 -6.542969 8.882812 -5.878906 C 8.910156 -5.824219 8.929688 -5.789062 8.941406 -5.773438 C 8.90625 -5.820312 8.851562 -5.871094 8.78125 -5.921875 C 8.503906 -6.128906 8.183594 -6.234375 7.824219 -6.234375 C 8.09375 -6.234375 8.558594 -6.460938 9.222656 -6.914062 C 10.289062 -7.640625 11.28125 -8.460938 12.191406 -9.375 C 13.152344 -10.335938 13.800781 -11.03125 14.140625 -11.46875 L 14.269531 -11.636719 L 14.421875 -11.785156 C 14.445312 -11.808594 14.6875 -12.113281 15.148438 -12.703125 C 15.726562 -13.445312 16.414062 -14.273438 17.207031 -15.195312 C 18.050781 -16.175781 18.886719 -17.042969 19.714844 -17.800781 C 21.09375 -19.066406 22.4375 -19.699219 23.75 -19.699219 C 24.460938 -19.699219 25.117188 -19.527344 25.71875 -19.183594 C 26.328125 -18.835938 26.8125 -18.351562 27.175781 -17.734375 C 27.589844 -17.019531 27.796875 -16.175781 27.796875 -15.195312 C 27.796875 -14.09375 27.324219 -12.816406 26.375 -11.371094 C 25.734375 -10.390625 24.984375 -9.375 24.121094 -8.3125 C 23.300781 -7.300781 22.492188 -6.351562 21.699219 -5.460938 C 20.898438 -4.5625 20.292969 -3.910156 19.882812 -3.5 L 17.289062 -0.910156 C 16.089844 0.289062 14.765625 1.324219 13.3125 2.199219 C 11.558594 3.25 9.636719 3.777344 7.550781 3.777344 Z M 7.550781 -3.046875 C 8.378906 -3.046875 9.128906 -3.25 9.800781 -3.652344 C 10.773438 -4.238281 11.660156 -4.929688 12.464844 -5.734375 L 15.058594 -8.328125 C 15.375 -8.644531 15.894531 -9.207031 16.609375 -10.007812 C 17.332031 -10.816406 18.070312 -11.6875 18.824219 -12.617188 C 19.539062 -13.496094 20.15625 -14.328125 20.667969 -15.109375 C 20.851562 -15.394531 20.980469 -15.613281 21.046875 -15.765625 C 21 -15.652344 20.972656 -15.464844 20.972656 -15.195312 C 20.972656 -14.945312 21.074219 -14.644531 21.277344 -14.296875 C 21.53125 -13.859375 21.886719 -13.511719 22.335938 -13.257812 C 22.78125 -13.003906 23.25 -12.875 23.75 -12.875 C 24.148438 -12.875 24.46875 -12.945312 24.707031 -13.085938 C 24.632812 -13.042969 24.507812 -12.9375 24.324219 -12.769531 C 23.695312 -12.195312 23.046875 -11.515625 22.375 -10.738281 C 21.652344 -9.898438 21.035156 -9.152344 20.523438 -8.496094 C 19.890625 -7.691406 19.464844 -7.179688 19.246094 -6.960938 L 16.832031 -9.371094 L 19.527344 -7.277344 C 19.015625 -6.621094 18.179688 -5.710938 17.015625 -4.546875 C 15.804688 -3.335938 14.488281 -2.246094 13.070312 -1.277344 C 11.246094 -0.03125 9.5 0.589844 7.824219 0.589844 C 6.675781 0.589844 5.636719 0.246094 4.707031 -0.445312 C 3.972656 -0.996094 3.351562 -1.738281 2.855469 -2.675781 C 2.179688 -3.949219 1.6875 -5.394531 1.378906 -7.003906 C 1.097656 -8.488281 0.957031 -9.792969 0.957031 -10.917969 C 0.957031 -14.289062 1.230469 -17.09375 1.78125 -19.332031 C 2.210938 -21.070312 2.4375 -22.292969 2.457031 -22.996094 C 2.449219 -22.691406 2.515625 -22.382812 2.660156 -22.070312 C 2.839844 -21.679688 3.101562 -21.367188 3.445312 -21.132812 C 3.632812 -21 3.8125 -20.917969 3.980469 -20.878906 L 3.984375 -20.875 C 3.941406 -20.878906 3.886719 -20.882812 3.820312 -20.882812 C 4.242188 -20.882812 4.617188 -21 4.949219 -21.234375 C 5.09375 -21.335938 5.183594 -21.421875 5.222656 -21.484375 C 4.972656 -21.058594 4.78125 -20.546875 4.648438 -19.949219 C 4.445312 -19.054688 4.289062 -18.300781 4.175781 -17.679688 L 4.167969 -17.632812 L 4.15625 -17.585938 C 3.734375 -15.574219 3.589844 -13.304688 3.726562 -10.785156 C 3.851562 -8.460938 4.34375 -6.492188 5.199219 -4.871094 L 2.183594 -3.277344 L 5.148438 -4.96875 C 5.429688 -4.472656 5.886719 -3.960938 6.515625 -3.433594 C 6.820312 -3.175781 7.167969 -3.046875 7.550781 -3.046875 Z M 1.226562 -35.757812 C 1.226562 -37.523438 1.714844 -39.085938 2.691406 -40.4375 C 3.917969 -42.140625 5.445312 -42.992188 7.28125 -42.992188 C 8.402344 -42.992188 9.417969 -42.652344 10.328125 -41.96875 C 11.035156 -41.4375 11.628906 -40.722656 12.109375 -39.824219 L 12.132812 -39.78125 L 12.152344 -39.742188 C 13.597656 -36.851562 13.625 -34.386719 12.242188 -32.34375 C 11.644531 -31.464844 10.941406 -30.777344 10.132812 -30.285156 C 9.199219 -29.71875 8.1875 -29.4375 7.097656 -29.4375 C 5.589844 -29.4375 4.246094 -29.988281 3.074219 -31.089844 C 1.84375 -32.25 1.226562 -33.804688 1.226562 -35.757812 Z M 8.054688 -35.757812 C 8.054688 -35.6875 8.054688 -35.632812 8.0625 -35.589844 C 8.0625 -35.589844 8.058594 -35.601562 8.050781 -35.625 C 7.996094 -35.78125 7.894531 -35.925781 7.753906 -36.0625 C 7.613281 -36.195312 7.394531 -36.261719 7.097656 -36.261719 C 6.914062 -36.261719 6.746094 -36.210938 6.585938 -36.117188 C 6.546875 -36.09375 6.519531 -36.070312 6.5 -36.054688 C 6.523438 -36.078125 6.554688 -36.117188 6.59375 -36.171875 C 6.460938 -35.980469 6.402344 -35.816406 6.414062 -35.679688 C 6.398438 -35.898438 6.273438 -36.234375 6.046875 -36.691406 L 9.097656 -38.214844 L 6.089844 -36.609375 C 6.074219 -36.640625 6.058594 -36.664062 6.046875 -36.679688 L 6.046875 -36.683594 C 6.09375 -36.628906 6.152344 -36.570312 6.234375 -36.511719 C 6.535156 -36.28125 6.886719 -36.167969 7.28125 -36.167969 C 7.597656 -36.167969 7.882812 -36.246094 8.132812 -36.402344 C 8.195312 -36.441406 8.242188 -36.476562 8.277344 -36.511719 C 8.269531 -36.503906 8.253906 -36.484375 8.230469 -36.449219 C 8.113281 -36.289062 8.054688 -36.058594 8.054688 -35.757812 Z M 8.054688 -35.757812 "/></g></g></g><g fill="#fffef9" fill-opacity="1"><g transform="translate(241.671706, 88.616657)"><g><path d="M 3.671875 -5.390625 C 3.582031 -5.367188 3.511719 -5.335938 3.449219 -5.300781 L 3.457031 -5.3125 C 3.617188 -5.46875 3.796875 -5.734375 3.996094 -6.109375 C 4.550781 -7.152344 4.949219 -8.371094 5.191406 -9.769531 C 5.441406 -11.222656 5.507812 -12.535156 5.386719 -13.710938 C 5.347656 -14.074219 5.292969 -14.339844 5.21875 -14.503906 C 5.242188 -14.449219 5.3125 -14.378906 5.429688 -14.300781 L 7.371094 -17.105469 L 10.664062 -16.207031 C 10.449219 -15.425781 10.078125 -14.355469 9.546875 -13 C 9.09375 -11.835938 8.652344 -10.550781 8.222656 -9.148438 C 7.832031 -7.867188 7.570312 -6.625 7.441406 -5.417969 C 7.359375 -4.625 7.421875 -4 7.636719 -3.546875 L 4.550781 -2.09375 Z M 5.429688 1.203125 L 2.675781 1.9375 L 1.460938 -0.640625 C 0.707031 -2.246094 0.4375 -4.082031 0.65625 -6.140625 C 0.832031 -7.78125 1.175781 -9.449219 1.695312 -11.144531 C 2.175781 -12.710938 2.675781 -14.15625 3.191406 -15.480469 C 3.632812 -16.613281 3.929688 -17.453125 4.078125 -18.003906 L 5.347656 -22.65625 L 9.3125 -19.910156 C 10.964844 -18.769531 11.917969 -16.933594 12.175781 -14.40625 C 12.359375 -12.609375 12.273438 -10.675781 11.914062 -8.609375 C 11.550781 -6.492188 10.917969 -4.585938 10.015625 -2.898438 C 8.824219 -0.660156 7.292969 0.707031 5.429688 1.203125 Z M -3.414062 -5.1875 C -3.414062 -6.21875 -3.21875 -7.625 -2.835938 -9.410156 C -2.472656 -11.082031 -1.96875 -12.875 -1.320312 -14.789062 C -0.671875 -16.703125 0.0585938 -18.519531 0.871094 -20.246094 C 1.761719 -22.128906 2.742188 -23.699219 3.820312 -24.960938 C 5.378906 -26.792969 7.140625 -27.707031 9.097656 -27.707031 C 10.070312 -27.707031 10.945312 -27.457031 11.71875 -26.960938 C 12.503906 -26.457031 13.09375 -25.757812 13.492188 -24.863281 C 14.09375 -23.507812 14.191406 -22.234375 13.792969 -21.03125 L 13.761719 -20.9375 L 13.722656 -20.84375 C 13.40625 -20.054688 12.890625 -19.332031 12.167969 -18.675781 C 12.042969 -18.5625 11.933594 -18.4375 11.847656 -18.308594 L 9.007812 -20.199219 L 12.289062 -21.136719 C 12.257812 -21.25 12.226562 -21.332031 12.195312 -21.378906 C 12.234375 -21.320312 12.300781 -21.234375 12.402344 -21.128906 C 13.074219 -20.417969 13.71875 -19.519531 14.335938 -18.433594 C 15.058594 -17.171875 15.523438 -15.570312 15.722656 -13.636719 C 15.910156 -11.832031 15.726562 -9.578125 15.171875 -6.867188 C 14.371094 -3.085938 13.03125 -0.175781 11.152344 1.859375 C 9.019531 4.167969 6.757812 5.324219 4.367188 5.324219 C 2.070312 5.324219 0.144531 4.273438 -1.417969 2.171875 C -2.746094 0.386719 -3.414062 -2.066406 -3.414062 -5.1875 Z M 3.414062 -5.1875 C 3.414062 -3.574219 3.628906 -2.476562 4.058594 -1.898438 C 4.21875 -1.683594 4.351562 -1.542969 4.457031 -1.480469 C 4.433594 -1.496094 4.40625 -1.5 4.367188 -1.5 C 4.476562 -1.5 4.632812 -1.554688 4.832031 -1.667969 C 5.222656 -1.882812 5.65625 -2.25 6.136719 -2.769531 C 7.167969 -3.886719 7.953125 -5.710938 8.484375 -8.238281 C 8.902344 -10.261719 9.050781 -11.824219 8.933594 -12.929688 C 8.832031 -13.910156 8.660156 -14.617188 8.410156 -15.050781 C 8.058594 -15.664062 7.734375 -16.132812 7.433594 -16.449219 C 6.570312 -17.371094 6 -18.304688 5.726562 -19.261719 L 5.292969 -20.78125 L 6.167969 -22.09375 C 6.566406 -22.691406 7.035156 -23.234375 7.578125 -23.726562 C 7.585938 -23.734375 7.59375 -23.742188 7.597656 -23.746094 C 7.589844 -23.734375 7.578125 -23.722656 7.5625 -23.703125 C 7.496094 -23.613281 7.4375 -23.507812 7.386719 -23.378906 L 10.554688 -22.109375 L 7.316406 -23.191406 C 7.210938 -22.875 7.179688 -22.566406 7.21875 -22.273438 C 7.226562 -22.207031 7.238281 -22.144531 7.253906 -22.09375 L 7.253906 -22.089844 C 7.410156 -21.742188 7.667969 -21.449219 8.027344 -21.21875 C 8.378906 -20.996094 8.734375 -20.882812 9.097656 -20.882812 C 9.253906 -20.882812 9.371094 -20.90625 9.449219 -20.953125 C 9.34375 -20.890625 9.195312 -20.75 9.011719 -20.535156 C 8.328125 -19.734375 7.671875 -18.667969 7.042969 -17.335938 C 6.339844 -15.84375 5.707031 -14.265625 5.140625 -12.597656 C 4.578125 -10.933594 4.140625 -9.390625 3.835938 -7.96875 C 3.554688 -6.660156 3.414062 -5.734375 3.414062 -5.1875 Z M 3.414062 -5.1875 "/></g></g></g><g fill="#16b0f8" fill-opacity="1"><g transform="translate(5.295121, 88.616657)"><g><path d="M 40.859375 45.21875 C 42.367188 45.21875 43.820312 44.335938 45.21875 42.578125 C 46.613281 40.816406 47.929688 38.570312 49.171875 35.84375 C 50.421875 33.113281 51.515625 30.25 52.453125 27.25 C 53.390625 24.25 54.144531 21.472656 54.71875 18.921875 C 55.300781 16.378906 55.625 14.441406 55.6875 13.109375 C 55.070312 13.585938 54.535156 14.144531 54.078125 14.78125 C 53.628906 15.414062 53.101562 16.007812 52.5 16.5625 C 50.914062 18.132812 49.242188 20.054688 47.484375 22.328125 C 45.734375 24.609375 44.128906 26.945312 42.671875 29.34375 C 41.210938 31.738281 40.148438 33.9375 39.484375 35.9375 C 39.304688 36.539062 39.09375 37.359375 38.84375 38.390625 C 38.601562 39.421875 38.453125 40.453125 38.390625 41.484375 C 38.328125 42.515625 38.476562 43.394531 38.84375 44.125 C 39.207031 44.851562 39.878906 45.21875 40.859375 45.21875 Z M 0 -7.828125 C 0 -11.703125 0.332031 -15.71875 1 -19.875 C 1.664062 -24.03125 2.585938 -28.125 3.765625 -32.15625 C 4.953125 -36.195312 6.335938 -39.945312 7.921875 -43.40625 C 8.953125 -45.519531 10.191406 -47.773438 11.640625 -50.171875 C 13.097656 -52.566406 14.765625 -54.828125 16.640625 -56.953125 C 18.523438 -59.078125 20.585938 -60.804688 22.828125 -62.140625 C 25.078125 -63.472656 27.535156 -64.140625 30.203125 -64.140625 C 32.566406 -64.140625 34.796875 -63.425781 36.890625 -62 C 38.984375 -60.582031 40.789062 -58.351562 42.3125 -55.3125 C 44.070312 -51.800781 45.144531 -47.800781 45.53125 -43.3125 C 45.925781 -38.820312 45.878906 -34.300781 45.390625 -29.75 C 44.910156 -25.195312 44.1875 -20.984375 43.21875 -17.109375 C 42.789062 -15.347656 42.457031 -14.148438 42.21875 -13.515625 C 41.976562 -12.878906 41.582031 -12.5625 41.03125 -12.5625 C 40.851562 -12.5625 40.625 -12.601562 40.34375 -12.6875 C 40.070312 -12.78125 39.753906 -12.859375 39.390625 -12.921875 C 39.148438 -14.191406 39.085938 -15.222656 39.203125 -16.015625 C 39.328125 -16.804688 39.484375 -17.867188 39.671875 -19.203125 C 40.210938 -21.742188 40.617188 -23.96875 40.890625 -25.875 C 41.171875 -27.789062 41.335938 -29.71875 41.390625 -31.65625 C 41.453125 -33.601562 41.484375 -35.878906 41.484375 -38.484375 C 41.484375 -40.421875 41.269531 -42.570312 40.84375 -44.9375 C 40.425781 -47.3125 39.757812 -49.585938 38.84375 -51.765625 C 37.9375 -53.953125 36.785156 -55.757812 35.390625 -57.1875 C 33.992188 -58.613281 32.296875 -59.328125 30.296875 -59.328125 C 28.054688 -59.328125 25.945312 -58.597656 23.96875 -57.140625 C 22 -55.679688 20.148438 -53.800781 18.421875 -51.5 C 16.691406 -49.195312 15.144531 -46.722656 13.78125 -44.078125 C 12.414062 -41.441406 11.25 -38.894531 10.28125 -36.4375 C 9.3125 -33.976562 8.582031 -31.898438 8.09375 -30.203125 C 7.363281 -27.773438 6.664062 -24.894531 6 -21.5625 C 5.332031 -18.226562 4.863281 -14.753906 4.59375 -11.140625 C 4.320312 -7.535156 4.351562 -4.046875 4.6875 -0.671875 C 5.019531 2.691406 5.820312 5.675781 7.09375 8.28125 C 7.519531 9.125 8.019531 10.015625 8.59375 10.953125 C 9.175781 11.898438 9.859375 12.675781 10.640625 13.28125 C 11.671875 14.195312 12.773438 14.847656 13.953125 15.234375 C 15.140625 15.628906 16.34375 15.828125 17.5625 15.828125 C 19.800781 15.828125 22.054688 15.328125 24.328125 14.328125 C 26.609375 13.328125 28.75 12.097656 30.75 10.640625 C 32.75 9.191406 34.414062 7.796875 35.75 6.453125 L 40.671875 1.09375 C 42.910156 -1.757812 44.726562 -4.398438 46.125 -6.828125 C 47.519531 -9.253906 49.128906 -12.039062 50.953125 -15.1875 C 51.429688 -16.039062 52.035156 -17.148438 52.765625 -18.515625 C 53.492188 -19.878906 54.28125 -21.242188 55.125 -22.609375 C 55.976562 -23.972656 56.828125 -25.125 57.671875 -26.0625 C 58.523438 -27.007812 59.316406 -27.484375 60.046875 -27.484375 C 60.898438 -27.484375 61.535156 -27.039062 61.953125 -26.15625 C 62.378906 -25.28125 62.664062 -24.203125 62.8125 -22.921875 C 62.96875 -21.648438 63.046875 -20.378906 63.046875 -19.109375 C 63.046875 -17.835938 63.046875 -16.804688 63.046875 -16.015625 C 63.046875 -11.953125 62.773438 -8.191406 62.234375 -4.734375 C 61.691406 -1.273438 61.390625 1.363281 61.328125 3.1875 C 61.628906 3 61.820312 2.8125 61.90625 2.625 C 62 2.445312 62.257812 2.238281 62.6875 2 C 62.988281 1.695312 63.226562 1.5 63.40625 1.40625 C 63.59375 1.320312 63.835938 1.15625 64.140625 0.90625 L 76.796875 -11.46875 C 77.160156 -11.945312 77.644531 -12.535156 78.25 -13.234375 C 78.851562 -13.929688 79.488281 -14.566406 80.15625 -15.140625 C 80.820312 -15.722656 81.457031 -16.015625 82.0625 -16.015625 C 82.976562 -16.015625 83.328125 -15.695312 83.109375 -15.0625 C 82.898438 -14.425781 82.445312 -13.664062 81.75 -12.78125 C 81.050781 -11.90625 80.320312 -11.085938 79.5625 -10.328125 C 78.800781 -9.566406 78.332031 -9.066406 78.15625 -8.828125 C 77.550781 -8.222656 77.019531 -7.628906 76.5625 -7.046875 C 76.101562 -6.472656 75.539062 -5.882812 74.875 -5.28125 L 61.234375 7.640625 C 60.628906 8.191406 60.265625 8.953125 60.140625 9.921875 C 60.015625 10.890625 59.832031 11.769531 59.59375 12.5625 C 59.164062 14.925781 58.570312 17.679688 57.8125 20.828125 C 57.0625 23.984375 56.140625 27.179688 55.046875 30.421875 C 53.953125 33.671875 52.660156 36.675781 51.171875 39.4375 C 49.691406 42.195312 47.976562 44.394531 46.03125 46.03125 C 45.613281 46.394531 44.960938 46.832031 44.078125 47.34375 C 43.203125 47.863281 42.429688 48.125 41.765625 48.125 C 39.640625 48.125 38.148438 47.695312 37.296875 46.84375 C 36.453125 46 35.96875 44.910156 35.84375 43.578125 C 35.726562 42.242188 35.671875 40.878906 35.671875 39.484375 C 35.671875 37.484375 36.125 35.40625 37.03125 33.25 C 37.9375 31.101562 39.101562 28.984375 40.53125 26.890625 C 41.957031 24.796875 43.394531 22.804688 44.84375 20.921875 C 46.300781 19.046875 47.578125 17.410156 48.671875 16.015625 C 49.097656 15.523438 49.507812 15.097656 49.90625 14.734375 C 50.300781 14.367188 50.648438 13.914062 50.953125 13.375 C 52.109375 11.914062 53.046875 10.925781 53.765625 10.40625 C 54.492188 9.894531 55.070312 9.488281 55.5 9.1875 C 55.925781 8.882812 56.273438 8.382812 56.546875 7.6875 C 56.816406 6.988281 57.101562 5.726562 57.40625 3.90625 C 57.59375 2.457031 57.851562 0.472656 58.1875 -2.046875 C 58.519531 -4.566406 58.820312 -7.207031 59.09375 -9.96875 C 59.363281 -12.726562 59.53125 -15.316406 59.59375 -17.734375 C 59.65625 -20.160156 59.535156 -22.015625 59.234375 -23.296875 L 55.3125 -16.828125 C 54.039062 -14.828125 52.976562 -13.082031 52.125 -11.59375 C 51.28125 -10.113281 50.460938 -8.707031 49.671875 -7.375 C 48.890625 -6.039062 47.992188 -4.628906 46.984375 -3.140625 C 45.984375 -1.648438 44.726562 0.09375 43.21875 2.09375 C 42.0625 3.726562 40.523438 5.5 38.609375 7.40625 C 36.703125 9.320312 34.582031 11.160156 32.25 12.921875 C 29.914062 14.679688 27.566406 16.117188 25.203125 17.234375 C 22.835938 18.359375 20.625 18.921875 18.5625 18.921875 C 16.4375 18.921875 14.523438 18.785156 12.828125 18.515625 C 11.128906 18.242188 9.492188 17.289062 7.921875 15.65625 C 4.941406 12.613281 2.875 9.117188 1.71875 5.171875 C 0.570312 1.234375 0 -3.097656 0 -7.828125 Z M 0 -7.828125 "/></g></g></g><g fill="#16b0f8" fill-opacity="1"><g transform="translate(84.08731, 88.616657)"><g><path d="M 4.546875 -2.09375 C 5.453125 -2.332031 6.269531 -3.132812 7 -4.5 C 7.726562 -5.863281 8.242188 -7.425781 8.546875 -9.1875 C 8.847656 -10.945312 8.921875 -12.566406 8.765625 -14.046875 C 8.617188 -15.535156 8.15625 -16.554688 7.375 -17.109375 C 7.1875 -16.441406 6.847656 -15.484375 6.359375 -14.234375 C 5.878906 -12.992188 5.410156 -11.628906 4.953125 -10.140625 C 4.503906 -8.660156 4.203125 -7.207031 4.046875 -5.78125 C 3.898438 -4.351562 4.066406 -3.125 4.546875 -2.09375 Z M 0 -5.1875 C 0 -5.976562 0.164062 -7.144531 0.5 -8.6875 C 0.832031 -10.238281 1.300781 -11.90625 1.90625 -13.6875 C 2.519531 -15.476562 3.203125 -17.175781 3.953125 -18.78125 C 4.710938 -20.394531 5.53125 -21.71875 6.40625 -22.75 C 7.289062 -23.78125 8.1875 -24.296875 9.09375 -24.296875 C 9.707031 -24.296875 10.132812 -24.019531 10.375 -23.46875 C 10.613281 -22.925781 10.671875 -22.472656 10.546875 -22.109375 C 10.429688 -21.804688 10.207031 -21.503906 9.875 -21.203125 C 9.539062 -20.898438 9.25 -20.566406 9 -20.203125 C 9.125 -19.773438 9.425781 -19.300781 9.90625 -18.78125 C 10.394531 -18.269531 10.878906 -17.585938 11.359375 -16.734375 C 11.847656 -15.890625 12.171875 -14.738281 12.328125 -13.28125 C 12.484375 -11.820312 12.316406 -9.910156 11.828125 -7.546875 C 11.160156 -4.398438 10.097656 -2.035156 8.640625 -0.453125 C 7.179688 1.117188 5.757812 1.90625 4.375 1.90625 C 3.21875 1.90625 2.195312 1.3125 1.3125 0.125 C 0.4375 -1.050781 0 -2.820312 0 -5.1875 Z M 0 -5.1875 "/></g></g></g><g fill="#16b0f8" fill-opacity="1"><g transform="translate(100.100503, 88.616657)"><g><path d="M 47.953125 3.828125 L 48.953125 -5.640625 C 49.679688 -11.398438 50.378906 -16.8125 51.046875 -21.875 C 51.710938 -26.945312 52.421875 -31.90625 53.171875 -36.75 C 53.929688 -41.601562 54.8125 -46.578125 55.8125 -51.671875 C 56.8125 -56.773438 57.984375 -62.265625 59.328125 -68.140625 C 58.234375 -68.140625 56.742188 -67.988281 54.859375 -67.6875 C 52.984375 -67.382812 50.90625 -67.019531 48.625 -66.59375 C 46.351562 -66.175781 44.078125 -65.707031 41.796875 -65.1875 C 39.523438 -64.675781 37.445312 -64.207031 35.5625 -63.78125 C 33.6875 -63.351562 32.234375 -63.019531 31.203125 -62.78125 C 28.960938 -62.175781 26.78125 -61.582031 24.65625 -61 C 22.53125 -60.425781 20.378906 -59.804688 18.203125 -59.140625 C 17.171875 -58.835938 15.832031 -58.410156 14.1875 -57.859375 C 12.550781 -57.316406 11.019531 -56.710938 9.59375 -56.046875 C 8.164062 -55.378906 7.210938 -54.679688 6.734375 -53.953125 C 6.972656 -53.160156 7.425781 -52.550781 8.09375 -52.125 C 8.757812 -51.707031 9.398438 -51.253906 10.015625 -50.765625 L 20.65625 -43.03125 C 25.5625 -39.332031 29.878906 -35.253906 33.609375 -30.796875 C 37.347656 -26.335938 40.335938 -21.226562 42.578125 -15.46875 C 44.097656 -11.707031 45.128906 -8.703125 45.671875 -6.453125 C 46.222656 -4.210938 46.601562 -2.363281 46.8125 -0.90625 C 47.019531 0.550781 47.335938 1.972656 47.765625 3.359375 Z M 3.640625 -54.59375 C 3.640625 -55.320312 3.941406 -56.003906 4.546875 -56.640625 C 5.148438 -57.273438 5.832031 -57.847656 6.59375 -58.359375 C 7.351562 -58.878906 7.976562 -59.289062 8.46875 -59.59375 L 15.1875 -62.421875 C 22.226562 -64.835938 29.398438 -66.863281 36.703125 -68.5 C 44.015625 -70.144531 51.34375 -71.363281 58.6875 -72.15625 C 59.65625 -72.269531 60.242188 -72.429688 60.453125 -72.640625 C 60.671875 -72.859375 60.820312 -73.070312 60.90625 -73.28125 C 61 -73.5 61.289062 -73.609375 61.78125 -73.609375 C 62.625 -73.609375 63.078125 -73.546875 63.140625 -73.421875 C 63.203125 -73.304688 63.273438 -73.171875 63.359375 -73.015625 C 63.453125 -72.859375 63.925781 -72.753906 64.78125 -72.703125 C 65.019531 -72.703125 65.257812 -72.703125 65.5 -72.703125 C 65.75 -72.703125 65.992188 -72.703125 66.234375 -72.703125 C 67.203125 -72.703125 68.265625 -72.710938 69.421875 -72.734375 C 70.578125 -72.765625 71.671875 -72.78125 72.703125 -72.78125 C 73.003906 -72.78125 73.289062 -72.78125 73.5625 -72.78125 C 73.832031 -72.78125 74.085938 -72.78125 74.328125 -72.78125 C 74.941406 -72.726562 76.113281 -72.609375 77.84375 -72.421875 C 79.570312 -72.242188 81.617188 -72 83.984375 -71.6875 C 86.347656 -71.382812 88.769531 -71.035156 91.25 -70.640625 C 93.738281 -70.253906 96.0625 -69.816406 98.21875 -69.328125 C 100.375 -68.847656 102.117188 -68.332031 103.453125 -67.78125 C 104.785156 -67.238281 105.453125 -66.632812 105.453125 -65.96875 C 105.453125 -64.9375 105.117188 -64.421875 104.453125 -64.421875 C 104.023438 -64.421875 103.492188 -64.507812 102.859375 -64.6875 C 102.222656 -64.875 101.421875 -65.085938 100.453125 -65.328125 C 98.628906 -65.753906 96.488281 -66.191406 94.03125 -66.640625 C 91.570312 -67.097656 89.007812 -67.507812 86.34375 -67.875 C 83.675781 -68.238281 81.128906 -68.523438 78.703125 -68.734375 C 76.273438 -68.953125 74.210938 -69.0625 72.515625 -69.0625 C 70.941406 -69.0625 69.53125 -69 68.28125 -68.875 C 67.039062 -68.75 65.570312 -68.6875 63.875 -68.6875 C 63.8125 -68.507812 63.644531 -67.78125 63.375 -66.5 C 63.101562 -65.226562 62.796875 -63.773438 62.453125 -62.140625 C 62.117188 -60.503906 61.832031 -59.003906 61.59375 -57.640625 C 61.351562 -56.273438 61.203125 -55.378906 61.140625 -54.953125 L 56.234375 -27.203125 C 55.441406 -22.171875 54.753906 -17.300781 54.171875 -12.59375 C 53.597656 -7.894531 52.976562 -3.117188 52.3125 1.734375 C 52.132812 3.066406 52 4.304688 51.90625 5.453125 C 51.8125 6.609375 51.675781 7.882812 51.5 9.28125 L 48.5 38.84375 C 48.4375 39.457031 48.375 40.21875 48.3125 41.125 C 48.25 42.03125 48.082031 42.847656 47.8125 43.578125 C 47.539062 44.304688 47.070312 44.671875 46.40625 44.671875 C 46.039062 44.671875 45.765625 44.5625 45.578125 44.34375 C 45.398438 44.132812 45.160156 43.941406 44.859375 43.765625 L 46.40625 17.921875 C 46.40625 15.316406 46.238281 12.523438 45.90625 9.546875 C 45.570312 6.578125 45.113281 3.617188 44.53125 0.671875 C 43.957031 -2.265625 43.335938 -4.914062 42.671875 -7.28125 C 41.765625 -10.675781 40.703125 -13.691406 39.484375 -16.328125 C 38.273438 -18.972656 36.894531 -21.476562 35.34375 -23.84375 C 33.800781 -26.207031 32.054688 -28.601562 30.109375 -31.03125 C 28.835938 -32.664062 27.289062 -34.253906 25.46875 -35.796875 C 23.65625 -37.347656 21.773438 -38.847656 19.828125 -40.296875 C 17.890625 -41.753906 16.132812 -43.0625 14.5625 -44.21875 L 6.28125 -50.125 C 5.613281 -50.613281 5.003906 -51.191406 4.453125 -51.859375 C 3.910156 -52.523438 3.640625 -53.4375 3.640625 -54.59375 Z M 3.640625 -54.59375 "/></g></g></g><g fill="#16b0f8" fill-opacity="1"><g transform="translate(160.149978, 88.616657)"><g><path d="M 1.28125 -0.359375 C 0.664062 -0.359375 0.296875 -0.738281 0.171875 -1.5 C 0.0546875 -2.257812 0.03125 -3.0625 0.09375 -3.90625 C 0.15625 -4.757812 0.1875 -5.273438 0.1875 -5.453125 C 0.125 -6.546875 0.109375 -7.65625 0.140625 -8.78125 C 0.171875 -9.90625 0.15625 -11.039062 0.09375 -12.1875 C 0.09375 -12.613281 0.109375 -13.414062 0.140625 -14.59375 C 0.171875 -15.78125 0.257812 -17.039062 0.40625 -18.375 C 0.5625 -19.707031 0.789062 -20.859375 1.09375 -21.828125 C 1.394531 -22.804688 1.789062 -23.296875 2.28125 -23.296875 C 3.488281 -23.296875 4.109375 -22.898438 4.140625 -22.109375 C 4.171875 -21.316406 4.125 -20.285156 4 -19.015625 C 3.9375 -18.585938 3.90625 -18.113281 3.90625 -17.59375 C 3.90625 -17.082031 3.90625 -16.585938 3.90625 -16.109375 C 3.90625 -15.492188 3.875 -15.097656 3.8125 -14.921875 C 3.757812 -14.742188 3.734375 -14.347656 3.734375 -13.734375 C 4.398438 -14.222656 5.003906 -14.785156 5.546875 -15.421875 C 6.097656 -16.054688 7.070312 -16.375 8.46875 -16.375 C 8.882812 -16.375 9.441406 -16.390625 10.140625 -16.421875 C 10.835938 -16.453125 11.582031 -16.46875 12.375 -16.46875 C 13.707031 -16.46875 14.945312 -16.390625 16.09375 -16.234375 C 17.25 -16.085938 17.828125 -15.710938 17.828125 -15.109375 C 17.828125 -14.492188 17.507812 -14.09375 16.875 -13.90625 C 16.238281 -13.726562 15.46875 -13.640625 14.5625 -13.640625 C 13.945312 -13.640625 13.320312 -13.65625 12.6875 -13.6875 C 12.050781 -13.71875 11.492188 -13.734375 11.015625 -13.734375 C 9.316406 -13.734375 8.175781 -13.640625 7.59375 -13.453125 C 7.019531 -13.273438 6.367188 -12.582031 5.640625 -11.375 C 5.210938 -10.582031 4.800781 -9.726562 4.40625 -8.8125 C 4.019531 -7.90625 3.734375 -6.910156 3.546875 -5.828125 C 3.367188 -5.035156 3.289062 -4.210938 3.3125 -3.359375 C 3.34375 -2.515625 3.253906 -1.800781 3.046875 -1.21875 C 2.835938 -0.644531 2.25 -0.359375 1.28125 -0.359375 Z M 1.28125 -0.359375 "/></g></g></g><g fill="#16b0f8" fill-opacity="1"><g transform="translate(174.980387, 88.616657)"><g><path d="M 0 -9.1875 C 0 -10.457031 0.300781 -12.03125 0.90625 -13.90625 C 1.507812 -15.789062 2.359375 -17.660156 3.453125 -19.515625 C 4.546875 -21.367188 5.804688 -22.898438 7.234375 -24.109375 C 8.660156 -25.328125 10.160156 -25.9375 11.734375 -25.9375 C 13.191406 -25.9375 14.375 -25.507812 15.28125 -24.65625 C 16.195312 -23.8125 16.742188 -22.945312 16.921875 -22.0625 C 17.109375 -21.1875 16.804688 -20.75 16.015625 -20.75 C 15.410156 -20.75 14.785156 -21.097656 14.140625 -21.796875 C 13.503906 -22.492188 12.765625 -22.84375 11.921875 -22.84375 C 11.253906 -22.84375 10.445312 -22.445312 9.5 -21.65625 C 8.5625 -20.863281 7.425781 -19.316406 6.09375 -17.015625 C 5.488281 -16.046875 4.925781 -14.785156 4.40625 -13.234375 C 3.894531 -11.691406 3.640625 -10.160156 3.640625 -8.640625 C 3.765625 -8.765625 3.8125 -8.8125 3.78125 -8.78125 C 3.75 -8.75 3.851562 -8.851562 4.09375 -9.09375 L 4.828125 -10.1875 C 5.304688 -10.914062 5.863281 -11.851562 6.5 -13 C 7.132812 -14.15625 7.785156 -15.320312 8.453125 -16.5 C 9.128906 -17.6875 9.738281 -18.691406 10.28125 -19.515625 C 10.820312 -20.335938 11.25 -20.75 11.5625 -20.75 C 12.644531 -20.75 13.273438 -20.351562 13.453125 -19.5625 C 13.640625 -18.769531 13.71875 -17.796875 13.6875 -16.640625 C 13.65625 -15.492188 13.765625 -14.34375 14.015625 -13.1875 C 14.378906 -11.550781 14.9375 -10.351562 15.6875 -9.59375 C 16.445312 -8.84375 17.3125 -8.46875 18.28125 -8.46875 C 19.976562 -8.46875 21.859375 -9.5 23.921875 -11.5625 C 24.773438 -12.34375 25.382812 -12.988281 25.75 -13.5 C 26.113281 -14.019531 26.597656 -14.613281 27.203125 -15.28125 C 27.628906 -15.882812 28.175781 -16.1875 28.84375 -16.1875 C 29.507812 -16.1875 29.796875 -15.625 29.703125 -14.5 C 29.609375 -13.382812 28.410156 -11.707031 26.109375 -9.46875 L 23.390625 -7.28125 C 21.628906 -6.0625 19.925781 -5.453125 18.28125 -5.453125 C 16.769531 -5.453125 15.453125 -5.90625 14.328125 -6.8125 C 13.203125 -7.726562 12.335938 -8.851562 11.734375 -10.1875 C 11.128906 -11.519531 10.828125 -12.828125 10.828125 -14.109375 C 10.398438 -13.796875 9.910156 -13.125 9.359375 -12.09375 C 8.816406 -11.0625 8.226562 -9.953125 7.59375 -8.765625 C 6.957031 -7.585938 6.304688 -6.5625 5.640625 -5.6875 C 4.972656 -4.8125 4.304688 -4.375 3.640625 -4.375 C 1.941406 -4.375 0.910156 -4.765625 0.546875 -5.546875 C 0.179688 -6.335938 0 -7.550781 0 -9.1875 Z M 0 -9.1875 "/></g></g></g><g fill="#16b0f8" fill-opacity="1"><g transform="translate(201.365762, 88.616657)"><g><path d="M 0.09375 -9.921875 C 0.09375 -10.828125 0.195312 -12.113281 0.40625 -13.78125 C 0.625 -15.445312 0.925781 -17.144531 1.3125 -18.875 C 1.707031 -20.601562 2.175781 -22.070312 2.71875 -23.28125 C 3.269531 -24.5 3.878906 -25.109375 4.546875 -25.109375 C 4.972656 -25.109375 5.242188 -25.078125 5.359375 -25.015625 C 5.484375 -24.960938 5.695312 -24.90625 6 -24.84375 C 6.488281 -23.8125 6.535156 -22.503906 6.140625 -20.921875 C 5.742188 -19.347656 5.394531 -17.617188 5.09375 -15.734375 C 4.664062 -13.066406 4.316406 -10.703125 4.046875 -8.640625 C 3.773438 -6.578125 3.941406 -4.242188 4.546875 -1.640625 C 5.453125 -1.878906 6.390625 -2.632812 7.359375 -3.90625 C 8.335938 -5.1875 9.296875 -6.691406 10.234375 -8.421875 C 11.171875 -10.148438 11.988281 -11.785156 12.6875 -13.328125 C 13.382812 -14.878906 13.914062 -16.046875 14.28125 -16.828125 C 14.582031 -17.429688 14.882812 -18.128906 15.1875 -18.921875 C 15.5 -19.710938 15.863281 -20.425781 16.28125 -21.0625 C 16.707031 -21.695312 17.191406 -22.015625 17.734375 -22.015625 C 18.347656 -22.015625 18.65625 -21.695312 18.65625 -21.0625 C 18.65625 -20.425781 18.488281 -19.648438 18.15625 -18.734375 C 17.820312 -17.828125 17.457031 -16.921875 17.0625 -16.015625 C 16.664062 -15.109375 16.347656 -14.410156 16.109375 -13.921875 C 15.742188 -13.191406 15.164062 -11.976562 14.375 -10.28125 C 13.582031 -8.582031 12.65625 -6.789062 11.59375 -4.90625 C 10.539062 -3.03125 9.390625 -1.441406 8.140625 -0.140625 C 6.898438 1.160156 5.671875 1.8125 4.453125 1.8125 C 3.609375 1.8125 2.789062 1.421875 2 0.640625 C 1.207031 -0.148438 0.691406 -1.164062 0.453125 -2.40625 C 0.210938 -3.65625 0.09375 -4.960938 0.09375 -6.328125 C 0.09375 -7.691406 0.09375 -8.890625 0.09375 -9.921875 Z M 0.09375 -9.921875 "/></g></g></g><g fill="#16b0f8" fill-opacity="1"><g transform="translate(220.927342, 88.616657)"><g><path d="M 7.546875 0.359375 C 6.335938 0.359375 5.257812 -0.03125 4.3125 -0.8125 C 3.375 -1.601562 2.664062 -2.425781 2.1875 -3.28125 C 1.09375 -5.34375 0.46875 -7.78125 0.3125 -10.59375 C 0.164062 -13.414062 0.332031 -15.976562 0.8125 -18.28125 C 0.9375 -18.945312 1.101562 -19.75 1.3125 -20.6875 C 1.53125 -21.632812 1.847656 -22.472656 2.265625 -23.203125 C 2.691406 -23.929688 3.210938 -24.296875 3.828125 -24.296875 C 5.210938 -24.296875 5.890625 -23.820312 5.859375 -22.875 C 5.835938 -21.9375 5.582031 -20.484375 5.09375 -18.515625 C 4.613281 -16.546875 4.375 -14.015625 4.375 -10.921875 C 4.375 -10.003906 4.492188 -8.910156 4.734375 -7.640625 C 4.972656 -6.367188 5.347656 -5.25 5.859375 -4.28125 C 6.378906 -3.3125 7.035156 -2.828125 7.828125 -2.828125 C 8.796875 -2.828125 9.898438 -3.25 11.140625 -4.09375 C 12.390625 -4.945312 13.539062 -5.898438 14.59375 -6.953125 C 15.65625 -8.015625 16.398438 -8.820312 16.828125 -9.375 C 16.953125 -9.488281 17.285156 -9.894531 17.828125 -10.59375 C 18.378906 -11.289062 19.03125 -12.078125 19.78125 -12.953125 C 20.539062 -13.835938 21.285156 -14.613281 22.015625 -15.28125 C 22.742188 -15.945312 23.320312 -16.28125 23.75 -16.28125 C 24.175781 -16.28125 24.390625 -15.914062 24.390625 -15.1875 C 24.390625 -14.769531 24.097656 -14.117188 23.515625 -13.234375 C 22.941406 -12.359375 22.257812 -11.429688 21.46875 -10.453125 C 20.6875 -9.484375 19.914062 -8.570312 19.15625 -7.71875 C 18.394531 -6.875 17.832031 -6.269531 17.46875 -5.90625 C 16.738281 -5.1875 15.875 -4.320312 14.875 -3.3125 C 13.875 -2.3125 12.765625 -1.445312 11.546875 -0.71875 C 10.335938 0 9.003906 0.359375 7.546875 0.359375 Z M 4.640625 -35.75 C 4.640625 -36.78125 4.910156 -37.675781 5.453125 -38.4375 C 6.003906 -39.195312 6.613281 -39.578125 7.28125 -39.578125 C 8.007812 -39.578125 8.613281 -39.125 9.09375 -38.21875 C 9.945312 -36.519531 10.054688 -35.195312 9.421875 -34.25 C 8.785156 -33.3125 8.007812 -32.84375 7.09375 -32.84375 C 6.488281 -32.84375 5.925781 -33.082031 5.40625 -33.5625 C 4.894531 -34.050781 4.640625 -34.78125 4.640625 -35.75 Z M 4.640625 -35.75 "/></g></g></g><g fill="#16b0f8" fill-opacity="1"><g transform="translate(241.671706, 88.616657)"><g><path d="M 4.546875 -2.09375 C 5.453125 -2.332031 6.269531 -3.132812 7 -4.5 C 7.726562 -5.863281 8.242188 -7.425781 8.546875 -9.1875 C 8.847656 -10.945312 8.921875 -12.566406 8.765625 -14.046875 C 8.617188 -15.535156 8.15625 -16.554688 7.375 -17.109375 C 7.1875 -16.441406 6.847656 -15.484375 6.359375 -14.234375 C 5.878906 -12.992188 5.410156 -11.628906 4.953125 -10.140625 C 4.503906 -8.660156 4.203125 -7.207031 4.046875 -5.78125 C 3.898438 -4.351562 4.066406 -3.125 4.546875 -2.09375 Z M 0 -5.1875 C 0 -5.976562 0.164062 -7.144531 0.5 -8.6875 C 0.832031 -10.238281 1.300781 -11.90625 1.90625 -13.6875 C 2.519531 -15.476562 3.203125 -17.175781 3.953125 -18.78125 C 4.710938 -20.394531 5.53125 -21.71875 6.40625 -22.75 C 7.289062 -23.78125 8.1875 -24.296875 9.09375 -24.296875 C 9.707031 -24.296875 10.132812 -24.019531 10.375 -23.46875 C 10.613281 -22.925781 10.671875 -22.472656 10.546875 -22.109375 C 10.429688 -21.804688 10.207031 -21.503906 9.875 -21.203125 C 9.539062 -20.898438 9.25 -20.566406 9 -20.203125 C 9.125 -19.773438 9.425781 -19.300781 9.90625 -18.78125 C 10.394531 -18.269531 10.878906 -17.585938 11.359375 -16.734375 C 11.847656 -15.890625 12.171875 -14.738281 12.328125 -13.28125 C 12.484375 -11.820312 12.316406 -9.910156 11.828125 -7.546875 C 11.160156 -4.398438 10.097656 -2.035156 8.640625 -0.453125 C 7.179688 1.117188 5.757812 1.90625 4.375 1.90625 C 3.21875 1.90625 2.195312 1.3125 1.3125 0.125 C 0.4375 -1.050781 0 -2.820312 0 -5.1875 Z M 0 -5.1875 "/></g></g></g></g></g><g fill="#122620" fill-opacity="1"><g transform="translate(134.831655, 229.495151)"><g><path d="M 2.3125 -5.890625 L 0.03125 -5.890625 L 0.03125 -6.484375 L 5.28125 -6.484375 L 5.28125 -5.890625 L 3 -5.890625 L 3 0 L 2.3125 0 Z M 2.3125 -5.890625 "/></g></g></g><g fill="#122620" fill-opacity="1"><g transform="translate(142.786385, 229.495151)"><g><path d="M 5.484375 0 L 4 -2.078125 C 3.832031 -2.066406 3.660156 -2.0625 3.484375 -2.0625 L 1.734375 -2.0625 L 1.734375 0 L 1.0625 0 L 1.0625 -6.484375 L 3.484375 -6.484375 C 4.304688 -6.484375 4.953125 -6.285156 5.421875 -5.890625 C 5.898438 -5.492188 6.140625 -4.953125 6.140625 -4.265625 C 6.140625 -3.753906 6.007812 -3.320312 5.75 -2.96875 C 5.488281 -2.625 5.125 -2.375 4.65625 -2.21875 L 6.234375 0 Z M 3.46875 -2.640625 C 4.101562 -2.640625 4.59375 -2.78125 4.9375 -3.0625 C 5.28125 -3.351562 5.453125 -3.753906 5.453125 -4.265625 C 5.453125 -4.785156 5.28125 -5.1875 4.9375 -5.46875 C 4.59375 -5.75 4.101562 -5.890625 3.46875 -5.890625 L 1.734375 -5.890625 L 1.734375 -2.640625 Z M 3.46875 -2.640625 "/></g></g></g><g fill="#122620" fill-opacity="1"><g transform="translate(152.120518, 229.495151)"><g><path d="M 5.125 -1.734375 L 1.515625 -1.734375 L 0.734375 0 L 0.015625 0 L 2.984375 -6.484375 L 3.65625 -6.484375 L 6.625 0 L 5.90625 0 Z M 4.875 -2.28125 L 3.3125 -5.765625 L 1.765625 -2.28125 Z M 4.875 -2.28125 "/></g></g></g><g fill="#122620" fill-opacity="1"><g transform="translate(161.399101, 229.495151)"><g><path d="M 6.453125 -6.484375 L 3.578125 0 L 2.90625 0 L 0.03125 -6.484375 L 0.765625 -6.484375 L 3.25 -0.859375 L 5.75 -6.484375 Z M 6.453125 -6.484375 "/></g></g></g><g fill="#122620" fill-opacity="1"><g transform="translate(170.501788, 229.495151)"><g><path d="M 5.640625 -0.59375 L 5.640625 0 L 1.0625 0 L 1.0625 -6.484375 L 5.5 -6.484375 L 5.5 -5.890625 L 1.734375 -5.890625 L 1.734375 -3.578125 L 5.09375 -3.578125 L 5.09375 -3 L 1.734375 -3 L 1.734375 -0.59375 Z M 5.640625 -0.59375 "/></g></g></g><g fill="#122620" fill-opacity="1"><g transform="translate(179.336008, 229.495151)"><g><path d="M 1.0625 -6.484375 L 1.734375 -6.484375 L 1.734375 -0.59375 L 5.375 -0.59375 L 5.375 0 L 1.0625 0 Z M 1.0625 -6.484375 "/></g></g></g><g fill="#122620" fill-opacity="1"><g transform="translate(187.429601, 229.495151)"><g/></g></g><g fill="#122620" fill-opacity="1"><g transform="translate(192.495923, 229.495151)"><g><path d="M 5.125 -1.734375 L 1.515625 -1.734375 L 0.734375 0 L 0.015625 0 L 2.984375 -6.484375 L 3.65625 -6.484375 L 6.625 0 L 5.90625 0 Z M 4.875 -2.28125 L 3.3125 -5.765625 L 1.765625 -2.28125 Z M 4.875 -2.28125 "/></g></g></g><g fill="#122620" fill-opacity="1"><g transform="translate(201.774506, 229.495151)"><g><path d="M 5.625 -3.25 L 6.28125 -3.25 L 6.28125 -0.765625 C 5.976562 -0.503906 5.617188 -0.300781 5.203125 -0.15625 C 4.796875 -0.0078125 4.363281 0.0625 3.90625 0.0625 C 3.25 0.0625 2.660156 -0.078125 2.140625 -0.359375 C 1.628906 -0.648438 1.222656 -1.046875 0.921875 -1.546875 C 0.628906 -2.054688 0.484375 -2.625 0.484375 -3.25 C 0.484375 -3.863281 0.628906 -4.421875 0.921875 -4.921875 C 1.222656 -5.429688 1.628906 -5.828125 2.140625 -6.109375 C 2.660156 -6.398438 3.25 -6.546875 3.90625 -6.546875 C 4.40625 -6.546875 4.859375 -6.460938 5.265625 -6.296875 C 5.679688 -6.140625 6.03125 -5.910156 6.3125 -5.609375 L 5.890625 -5.171875 C 5.378906 -5.679688 4.726562 -5.9375 3.9375 -5.9375 C 3.414062 -5.9375 2.941406 -5.816406 2.515625 -5.578125 C 2.085938 -5.347656 1.753906 -5.023438 1.515625 -4.609375 C 1.273438 -4.203125 1.15625 -3.75 1.15625 -3.25 C 1.15625 -2.738281 1.273438 -2.28125 1.515625 -1.875 C 1.753906 -1.46875 2.082031 -1.144531 2.5 -0.90625 C 2.925781 -0.675781 3.398438 -0.5625 3.921875 -0.5625 C 4.585938 -0.5625 5.15625 -0.726562 5.625 -1.0625 Z M 5.625 -3.25 "/></g></g></g><g fill="#122620" fill-opacity="1"><g transform="translate(211.571529, 229.495151)"><g><path d="M 5.640625 -0.59375 L 5.640625 0 L 1.0625 0 L 1.0625 -6.484375 L 5.5 -6.484375 L 5.5 -5.890625 L 1.734375 -5.890625 L 1.734375 -3.578125 L 5.09375 -3.578125 L 5.09375 -3 L 1.734375 -3 L 1.734375 -0.59375 Z M 5.640625 -0.59375 "/></g></g></g><g fill="#122620" fill-opacity="1"><g transform="translate(220.40575, 229.495151)"><g><path d="M 6.484375 -6.484375 L 6.484375 0 L 5.90625 0 L 1.734375 -5.265625 L 1.734375 0 L 1.0625 0 L 1.0625 -6.484375 L 1.625 -6.484375 L 5.796875 -1.21875 L 5.796875 -6.484375 Z M 6.484375 -6.484375 "/></g></g></g><g fill="#122620" fill-opacity="1"><g transform="translate(230.573081, 229.495151)"><g><path d="M 3.875 0.0625 C 3.226562 0.0625 2.644531 -0.078125 2.125 -0.359375 C 1.613281 -0.648438 1.210938 -1.046875 0.921875 -1.546875 C 0.628906 -2.054688 0.484375 -2.625 0.484375 -3.25 C 0.484375 -3.863281 0.628906 -4.421875 0.921875 -4.921875 C 1.210938 -5.429688 1.617188 -5.828125 2.140625 -6.109375 C 2.660156 -6.398438 3.238281 -6.546875 3.875 -6.546875 C 4.363281 -6.546875 4.8125 -6.460938 5.21875 -6.296875 C 5.625 -6.140625 5.96875 -5.90625 6.25 -5.59375 L 5.8125 -5.15625 C 5.3125 -5.675781 4.675781 -5.9375 3.90625 -5.9375 C 3.382812 -5.9375 2.914062 -5.816406 2.5 -5.578125 C 2.082031 -5.335938 1.753906 -5.015625 1.515625 -4.609375 C 1.273438 -4.203125 1.15625 -3.75 1.15625 -3.25 C 1.15625 -2.738281 1.273438 -2.28125 1.515625 -1.875 C 1.753906 -1.46875 2.082031 -1.144531 2.5 -0.90625 C 2.914062 -0.675781 3.382812 -0.5625 3.90625 -0.5625 C 4.675781 -0.5625 5.3125 -0.816406 5.8125 -1.328125 L 6.25 -0.90625 C 5.96875 -0.59375 5.617188 -0.351562 5.203125 -0.1875 C 4.796875 -0.0195312 4.351562 0.0625 3.875 0.0625 Z M 3.875 0.0625 "/></g></g></g><g fill="#122620" fill-opacity="1"><g transform="translate(239.87018, 229.495151)"><g><path d="M 3.28125 -2.25 L 3.28125 0 L 2.609375 0 L 2.609375 -2.25 L 0.015625 -6.484375 L 0.734375 -6.484375 L 2.96875 -2.84375 L 5.1875 -6.484375 L 5.875 -6.484375 Z M 3.28125 -2.25 "/></g></g></g></svg>